<svg xmlns="http://www.w3.org/2000/svg" viewBox="0 0 2400 800" preserveAspectRatio="xMidYMid slice">
<rect class="mp-land" width="2400" height="800" fill="#0A1731"/>
<g class="mp-sea"><path fill="#040B1F" d="M-12 1868L-12 1865L-12 1863L-4 1845L-3 1842L-1 1839L0 1835L4 1826L16 1792L18 1788L18 1785L19 1784L20 1780L26 1761L38 1732L43 1728L49 1726L47 1724L48 1724L53 1731L55 1731L56 1730L57 1726L62 1727L65 1725L80 1694L78 1692L76 1694L75 1694L77 1695L63 1724L49 1717L50 1714L49 1713L49 1712L51 1713L52 1710L61 1715L61 1713L52 1709L53 1707L54 1707L54 1707L55 1707L54 1706L59 1696L68 1700L67 1701L68 1701L69 1700L63 1697L65 1693L64 1692L63 1694L62 1694L61 1691L60 1680L62 1677L65 1672L73 1675L72 1678L73 1677L75 1673L74 1672L73 1675L70 1673L69 1671L69 1665L71 1660L84 1633L87 1631L89 1624L91 1622L98 1605L105 1596L107 1590L111 1585L117 1578L119 1572L121 1570L123 1566L126 1563L139 1550L147 1545L149 1545L161 1544L165 1552L166 1552L162 1545L192 1513L215 1494L225 1488L227 1485L236 1479L247 1472L253 1470L257 1468L269 1471L274 1469L278 1466L289 1466L291 1462L296 1459L296 1457L298 1457L308 1453L309 1454L311 1456L311 1453L313 1452L317 1451L318 1453L319 1451L320 1451L325 1450L329 1447L336 1445L344 1444L346 1446L347 1448L347 1446L349 1444L351 1444L353 1447L355 1447L357 1444L363 1443L365 1444L368 1441L371 1444L375 1444L376 1442L372 1442L371 1439L373 1436L375 1435L377 1437L376 1438L378 1437L377 1436L377 1434L379 1433L382 1433L384 1435L383 1438L384 1438L385 1435L385 1432L392 1429L397 1425L401 1423L406 1422L408 1423L409 1426L412 1426L414 1424L417 1424L420 1426L421 1428L421 1427L425 1428L427 1426L430 1425L431 1425L433 1427L436 1426L437 1426L442 1423L449 1422L452 1420L459 1420L461 1421L465 1422L466 1425L469 1426L473 1428L480 1428L482 1429L483 1431L487 1430L489 1430L490 1432L490 1431L494 1434L499 1431L508 1431L510 1431L516 1437L517 1436L511 1431L511 1426L515 1422L520 1419L535 1418L543 1413L547 1411L548 1410L547 1408L546 1406L544 1405L545 1402L549 1395L555 1384L559 1380L560 1377L569 1366L575 1363L581 1363L582 1356L593 1346L601 1342L617 1339L617 1335L621 1327L627 1322L634 1318L645 1315L654 1316L654 1320L657 1323L660 1322L660 1321L658 1321L657 1320L658 1317L667 1324L666 1324L667 1325L670 1326L673 1323L671 1321L672 1320L669 1323L664 1319L668 1313L676 1318L677 1317L669 1311L669 1310L667 1308L662 1315L657 1312L657 1309L656 1309L655 1306L655 1306L655 1305L658 1304L660 1301L659 1299L660 1298L663 1297L664 1297L667 1297L667 1298L669 1298L670 1299L671 1297L672 1299L673 1300L668 1306L671 1308L671 1307L680 1313L681 1312L673 1307L677 1301L680 1304L683 1300L688 1304L689 1303L688 1304L689 1303L690 1304L689 1305L690 1306L672 1331L671 1330L671 1331L671 1332L667 1333L663 1332L662 1333L662 1334L666 1335L669 1335L672 1334L698 1299L698 1298L697 1297L694 1300L685 1293L688 1281L690 1278L695 1266L705 1251L708 1245L711 1241L715 1232L719 1227L722 1218L725 1214L729 1207L735 1194L736 1192L740 1183L743 1178L744 1176L746 1173L748 1169L753 1164L755 1164L758 1162L758 1160L758 1153L758 1152L765 1143L780 1117L792 1092L801 1076L818 1047L819 1044L841 1013L859 982L886 945L893 937L909 913L943 868L952 853L958 846L959 847L960 847L960 846L959 845L966 837L970 832L975 829L978 828L980 830L985 833L985 830L987 828L990 825L992 826L990 825L991 823L998 818L998 817L1002 815L1003 815L1005 817L1006 816L1006 814L1007 814L1008 816L1007 812L1008 808L1038 748L1039 748L1041 742L1043 737L1044 737L1042 735L1043 733L1044 731L1045 732L1047 732L1047 729L1046 729L1047 728L1048 728L1047 726L1060 694L1064 687L1072 683L1084 688L1085 686L1084 685L1068 679L1068 676L1070 665L1099 600L1126 549L1134 536L1137 532L1141 530L1147 527L1152 526L1157 536L1158 536L1157 531L1151 522L1162 505L1170 511L1171 511L1172 510L1172 488L1172 484L1172 483L1175 482L1177 503L1176 513L1173 535L1169 536L1167 543L1168 543L1167 544L1165 543L1164 544L1164 545L1165 546L1171 547L1175 547L1180 543L1203 546L1204 545L1219 547L1219 546L1207 544L1214 497L1213 497L1213 498L1209 497L1207 494L1197 496L1197 495L1209 492L1209 491L1207 492L1206 488L1205 488L1206 491L1202 492L1194 488L1192 479L1192 479L1201 476L1204 485L1205 485L1203 476L1224 470L1225 469L1224 465L1222 464L1191 474L1189 468L1209 445L1211 447L1212 445L1220 449L1221 448L1218 438L1220 438L1215 432L1217 430L1244 421L1248 426L1234 454L1236 456L1239 464L1238 465L1239 466L1240 469L1242 471L1246 484L1246 486L1235 500L1234 502L1236 506L1234 507L1235 509L1237 508L1238 510L1236 510L1240 518L1241 518L1244 523L1239 561L1236 561L1236 564L1240 564L1247 513L1249 508L1259 489L1258 488L1252 500L1246 496L1250 489L1251 480L1247 468L1244 464L1262 438L1273 426L1284 417L1288 414L1293 413L1300 412L1305 414L1308 417L1310 421L1314 420L1314 413L1321 405L1332 399L1348 394L1360 393L1365 395L1369 398L1366 404L1366 405L1367 405L1372 394L1384 394L1395 395L1400 398L1402 401L1406 402L1407 401L1421 400L1424 400L1429 403L1432 407L1435 408L1442 406L1445 405L1450 405L1451 405L1453 409L1455 410L1456 409L1454 409L1454 407L1455 405L1457 405L1458 406L1458 407L1459 408L1460 407L1459 405L1461 405L1464 407L1464 408L1462 409L1462 410L1463 410L1466 409L1470 410L1470 409L1468 409L1468 407L1470 405L1472 404L1474 405L1473 408L1475 408L1475 407L1477 408L1478 410L1477 410L1477 412L1483 413L1484 412L1480 412L1480 410L1482 408L1485 406L1487 407L1488 408L1487 410L1488 410L1488 407L1491 407L1493 408L1494 411L1494 413L1491 413L1491 414L1496 413L1500 416L1500 415L1499 415L1499 413L1502 413L1504 414L1504 415L1505 418L1504 418L1503 419L1511 421L1512 420L1511 420L1512 420L1518 420L1524 421L1526 422L1525 423L1526 424L1530 425L1531 424L1530 423L1528 423L1529 420L1533 418L1536 418L1539 419L1540 421L1541 424L1539 424L1538 425L1542 425L1544 425L1544 424L1543 424L1541 424L1543 420L1545 419L1551 419L1554 421L1555 423L1555 424L1552 425L1553 426L1560 425L1564 426L1568 429L1569 428L1568 426L1568 425L1571 424L1574 424L1577 425L1579 427L1579 430L1578 429L1577 430L1578 431L1582 432L1583 431L1581 430L1581 429L1584 427L1586 427L1590 428L1592 431L1592 433L1591 432L1590 433L1590 434L1591 435L1595 433L1598 430L1621 435L1628 438L1637 443L1638 450L1640 450L1639 445L1641 446L1641 445L1649 448L1649 449L1646 454L1640 454L1636 451L1635 451L1635 452L1638 454L1638 455L1647 456L1648 454L1650 454L1662 457L1672 461L1674 462L1674 463L1689 463L1692 464L1692 463L1693 462L1699 463L1703 465L1702 466L1702 467L1704 466L1705 465L1703 465L1705 462L1707 462L1710 462L1714 464L1713 463L1715 462L1728 458L1740 461L1742 467L1744 468L1744 468L1747 468L1746 470L1748 472L1751 471L1752 469L1757 466L1771 463L1775 465L1781 465L1784 467L1785 467L1785 465L1787 465L1801 463L1817 464L1833 460L1850 459L1867 454L1872 453L1891 454L1897 455L1902 460L1898 463L1905 458L1907 458L1910 460L1912 460L1914 461L1915 460L1919 463L1924 462L1928 463L1937 462L1940 460L1940 456L1942 454L1950 453L1981 449L2020 456L2054 460L2077 465L2128 474L2144 476L2170 476L2187 479L2195 479L2202 481L2210 480L2211 478L2217 477L2234 475L2250 471L2253 472L2259 470L2267 467L2271 467L2290 463L2309 461L2319 461L2332 459L2333 460L2364 458L2390 453L2407 454L2412 453L2436 452L2450 451L2461 450L2464 450L2475 449L2480 448L2488 449L2497 447L2508 447L2529 444L2538 444L2545 446L2554 446L2566 449L2572 449L2585 447L2598 447L2619 446L2649 437L2660 430L2663 426L2669 424L2675 423L2679 420L2697 415L2725 409L2743 408L2747 407L2755 408L2760 407L2776 407L2792 404L2800 403L2806 400L2835 393L2848 393L2854 392L2874 388L2882 387L2897 384L2914 384L2933 381L2944 381L2960 380L2973 377L2983 378L2997 376L3014 367L3033 361L3038 356L3044 353L3055 351L3057 350L3060 351L3063 350L3066 347L3065 345L3078 332L3087 320L3087 1200L-12 1200 Z"/></g>
<g class="mp-river" fill="none" stroke="#15305A" stroke-width="1.6" stroke-linecap="round" stroke-linejoin="round"><path pathLength="1" d="M617 703L646 642L650 637L666 625L673 610L678 604L698 594L750 621L778 629L799 638L813 647L839 658L843 663L852 669L856 670L899 703L904 708L907 719L911 723L922 731L953 747L976 766L1004 801L1004 806L1007 811"/><path pathLength="1" d="M2088 50L2088 57L2087 58L2088 64L2086 70L2088 73L2092 75L2089 81L2089 83L2094 87L2088 101L2084 105L2085 107L2081 112L2082 119L2077 125L2077 137L2070 136L2065 140L2061 152L2057 155L2057 160L2054 163L2057 175L2064 182L2065 195L2070 200L2069 205L2072 209L2068 213L2068 216L2076 233L2077 239L2077 244L2069 255L2072 262L2073 268L2066 277L2075 300L2074 340L2084 355L2085 362L2079 404L2081 410L2086 414L2089 425L2083 440L2077 465"/><path pathLength="1" d="M662 27L651 45L639 57L618 70L586 86L575 96L568 105L555 127L508 184L503 200L499 207L484 225L475 239L476 242L484 248L483 256L484 263L495 269L499 276L500 285L498 294L498 300L508 316L511 331L514 334L522 338L520 348L527 359L528 369L532 377L535 391L536 406L546 428L549 442L557 455L560 464L559 479L557 484L549 488L539 504L533 510L522 515L517 529L515 536L517 544L519 564L522 570L529 575"/><path pathLength="1" d="M2229 -5L2224 2L2221 2L2220 7L2217 6L2213 8L2216 12L2222 17L2223 19L2217 21L2218 25L2217 36L2219 42L2218 46L2221 53L2219 62L2215 59L2213 60L2212 64L2214 65L2212 70L2215 75L2210 85L2210 92L2207 99L2208 101L2214 101L2215 103L2206 111L2207 114L2213 113L2212 122L2216 126L2225 132L2227 138L2221 152L2226 164L2222 188L2211 199L2215 201L2218 207L2221 209L2221 214L2222 216L2227 218L2233 223L2234 229L2231 242L2241 256L2241 259L2239 265L2243 270L2245 278L2244 279L2237 282L2235 295L2230 296L2230 303L2224 308L2224 320L2214 326L2213 344L2210 346L2202 345L2200 347L2209 368L2212 388L2217 398L2206 429L2205 436L2209 480"/><path pathLength="1" d="M899 703L908 709L925 714L946 715L975 716L997 718L1020 725L1042 739"/><path pathLength="1" d="M2000 2L2001 10L2001 19L1997 32L1988 41L1979 47L1978 49L1979 54L1978 57L1967 65L1965 70L1965 86L1958 83L1957 87L1959 91L1949 92L1944 104L1942 105L1934 105L1930 107L1926 115L1919 134L1910 135L1909 141L1903 145L1899 149L1895 151L1891 151L1882 156L1876 158L1869 165L1861 167L1851 167L1837 174L1826 189L1816 195L1814 198L1813 203L1812 217L1805 228L1805 230L1812 231L1812 241L1817 249L1803 273L1804 279L1808 283L1807 286L1802 288L1800 292L1802 306L1800 326L1800 333L1811 353L1821 385L1828 400L1824 412L1820 419L1812 426L1810 432L1811 441L1816 447L1818 464"/><path pathLength="1" d="M765 -206L759 -207L757 -205L755 -199L757 -187L756 -180L743 -169L737 -161L729 -140L726 -129L728 -123L738 -108L745 -91L752 -82L753 -79L752 -75L746 -72L738 -65L724 -49L720 -37L714 -34L698 -32L694 -30L691 -25L684 5L677 17L662 27L646 32L615 51L603 78"/><path pathLength="1" d="M2325 259L2321 262L2315 263L2313 278L2309 279L2306 291L2307 294L2301 300L2305 303L2304 307L2300 312L2303 320L2304 326L2299 329L2303 332L2304 334L2301 337L2299 344L2301 365L2309 367L2310 369L2302 382L2293 386L2293 392L2287 397L2288 406L2304 427L2304 442L2299 455L2299 462"/><path pathLength="1" d="M1037 -461L1026 -453L1027 -445L1023 -437L1016 -444L1008 -447L1005 -445L1002 -440L1014 -428L1022 -431L1025 -427L1027 -418L1035 -415L1039 -416L1041 -419L1040 -424L1036 -429L1037 -435L1040 -437L1043 -435L1045 -430L1046 -421L1048 -410L1053 -400L1054 -392L1063 -395L1067 -394L1068 -391L1066 -377L1068 -372L1072 -367L1080 -365L1081 -355L1073 -340L1065 -330L1064 -324L1067 -321L1073 -324L1076 -324L1081 -319L1076 -312L1076 -308L1071 -307L1063 -309L1057 -316L1052 -316L1042 -300L1034 -296L1031 -296L1030 -308L1026 -309L1021 -307L1018 -303L1017 -296L1030 -290L1022 -280L1020 -275L1024 -272L1032 -272L1039 -280L1048 -269L1053 -265L1074 -260L1082 -259L1088 -253L1093 -243L1096 -227L1113 -217L1111 -210L1113 -208L1115 -208L1121 -217L1127 -216L1132 -208L1132 -203L1127 -186L1131 -166L1127 -155L1130 -146L1135 -141L1133 -131L1134 -123L1136 -122L1143 -123L1147 -121L1140 -112L1132 -112L1133 -106L1140 -103L1139 -100L1119 -92L1121 -90L1137 -90L1139 -88L1135 -77L1135 -74L1140 -67L1139 -65L1132 -63L1131 -62L1131 -60L1140 -59L1141 -57L1135 -52L1125 -49L1123 -46L1123 -43L1126 -41L1137 -40L1140 -34L1151 -26L1153 -22L1149 -16L1149 -7L1145 -2L1143 -3L1139 0L1139 8L1138 9L1134 10L1133 0L1131 -3L1128 -2L1125 6L1125 25L1116 28L1114 30L1114 32L1116 36L1139 38L1144 41L1147 46L1147 51L1143 56L1136 61L1133 66L1135 73L1145 79L1146 85L1140 97L1130 126L1131 128L1134 132L1149 135L1153 136L1179 197L1181 206L1172 359L1177 408L1174 423L1173 437L1173 483"/><path pathLength="1" d="M-138 353L-135 351L-130 352L-121 365L-122 377L-127 387L-125 394L-111 406L-105 408L-86 408L-80 404L-68 388L-63 382L-59 380L-34 389L-12 392L5 386L9 379L15 353L34 334L48 332L79 343L85 341L98 354L109 358L113 359L117 357L143 341L151 340L157 345L162 358L157 373L158 378L156 390L159 397L168 402L178 402L191 400L196 396L204 384L215 371L220 369L230 381L239 385L256 402L268 425L275 431L287 437L303 436L311 432L349 439L356 445L372 471L388 493L395 497L451 516L452 519L449 538L457 544L468 548L476 553L482 559L492 578L497 583L507 585L515 585L529 575L537 573L539 575L546 584L553 591L565 598L572 598L595 593L603 585L614 580L623 578L646 579L698 594"/><path pathLength="1" d="M2376 361L2378 363L2377 367L2368 383L2371 394L2368 401L2371 412L2371 423L2378 429L2376 442L2384 452L2384 454"/></g>
<g class="mp-r2" fill="none" stroke="#22395F" stroke-width="0.7" stroke-linecap="round" stroke-linejoin="round"><path d="M1005 412L1004 414 M1005 412L993 411 M1151 440L1150 443L1144 450L1139 452 M1010 522L1021 516 M1085 468L1084 469 M1085 468L1087 469 M1086 466L1081 457 M1076 447L1076 450 M1049 456L1053 453 M1110 423L1112 422 M1117 426L1116 420 M1139 453L1144 451L1153 441 M1136 453L1130 456 M1122 457L1119 457 M874 843L875 843 M1072 630L1070 630 M1070 630L1071 631 M1152 426L1152 428 M1143 481L1146 478 M1166 284L1163 313 M1199 327L1197 315L1193 303 M1194 283L1194 283 M1192 279L1191 280 M1302 316L1298 314L1297 308L1291 299 M1182 166L1193 188 M1268 222L1265 222L1262 224L1261 231L1265 236L1261 240 M1277 218L1274 220 M39 420L39 420 M31 430L31 430 M472 663L448 655L445 651L434 631L428 625 M218 421L217 419 M977 412L988 412 M546 730L543 729 M544 733L543 737 M259 821L250 827L244 833L225 867L217 887 M262 819L264 819 M963 368L956 369 M977 410L974 408 M993 411L989 411 M989 411L977 410 M988 412L993 413 M993 413L999 413 M969 592L981 582 M1062 484L1061 485 M217 419L215 417 M215 417L208 414 M38 423L31 429 M1596 407L1601 404L1608 402 M1225 390L1226 388 M1177 397L1177 397 M1411 398L1404 397L1393 390 M1292 399L1282 402 M1179 439L1184 454 M1630 393L1642 379 M1340 348L1341 348 M1335 348L1334 354 M1344 385L1342 373 M1337 322L1337 330L1341 334L1340 339 M1225 390L1227 391 M1231 393L1234 394 M1191 359L1194 357 M1244 358L1245 358 M1337 388L1332 390 M1289 357L1291 358 M1167 426L1167 426 M900 456L899 455 M888 403L889 404 M898 405L899 405 M891 403L898 405 M954 369L956 370 M882 379L890 379 M863 399L888 403 M888 402L860 398 M1305 317L1306 316 M900 459L908 504 M1121 359L1120 362 M1129 309L1129 312 M1129 314L1130 312 M1123 415L1123 413 M1134 399L1134 409 M1158 354L1152 351 M1170 360L1175 361 M1175 361L1175 360 M1130 311L1139 310L1150 313 M1130 293L1130 295 M1130 309L1131 293 M1165 318L1166 316 M1340 322L1339 321 M1344 347L1347 335L1341 324 M1339 321L1338 320L1338 321 M1282 402L1269 403 M1154 425L1154 424 M1167 397L1163 398 M1140 399L1140 382 M1171 202L1170 200 M1170 239L1170 239 M1170 253L1170 251 M1159 176L1169 200 M1170 200L1160 178 M1171 206L1170 224 M1170 239L1171 224 M1170 224L1170 239 M1171 224L1172 206 M1170 242L1170 250 M1155 314L1158 315 M1159 315L1160 316 M1171 315L1166 315 M1166 318L1169 320 M1150 351L1148 353 M1109 324L1126 339 M1148 353L1151 359 M1158 354L1158 346 M1172 265L1173 265 M1168 280L1174 267L1173 265 M1173 264L1172 260 M1216 287L1217 288 M1253 257L1254 261 M1254 261L1255 268L1252 273 M1233 310L1232 313 M1246 359L1252 357 M1184 357L1182 358 M1199 327L1181 328 M1199 327L1200 333 M1225 320L1222 322 M1179 334L1179 333 M1191 284L1186 305 M1238 339L1240 344 M1097 545L1098 542 M1630 393L1628 394 M1431 363L1431 364 M1430 362L1431 363 M1432 361L1433 361 M1434 338L1432 344L1428 348L1430 361 M1393 390L1398 393 M1340 348L1339 348 M1129 312L1129 314 M1129 314L1128 330L1126 338 M1146 365L1145 365 M1145 365L1142 376 M1147 363L1151 359 M1264 357L1279 357L1286 355L1288 356 M1241 346L1242 358 M1339 348L1335 348 M1341 348L1343 348L1344 347 M74 389L72 388 M71 388L71 388 M84 318L84 316 M83 317L84 318 M84 317L84 317 M84 316L86 308 M82 316L75 320 M84 318L85 320 M85 320L87 326 M-85 466L-80 467L-65 465L-45 472L-36 471L-31 468L-26 467 M38 421L38 423 M70 390L70 392L62 400 M107 404L107 404 M107 404L110 404 M106 403L104 402 M205 413L205 413 M203 412L200 412 M205 414L208 414 M200 412L192 410L160 412L125 404L110 404 M221 426L221 426 M220 423L218 421 M218 421L219 423 M220 426L221 427 M221 427L221 425 M822 613L824 610 M824 610L821 612 M832 595L830 599 M830 599L833 595 M824 610L830 599 M1628 395L1627 395 M932 562L931 560 M708 828L706 830 M430 282L427 277 M449 327L448 318 M448 318L447 326 M448 318L437 296 M433 288L430 282 M430 282L437 296 M507 368L503 353 M1080 354L1078 363 M1026 478L1021 461 M1007 417L1009 437L1012 446 M857 398L848 401 M1075 590L1087 597 M1088 596L1075 589 M848 402L857 399 M903 562L902 562 M960 548L957 549 M886 563L888 563 M886 563L885 563 M1677 316L1678 311L1685 307L1687 308L1684 310L1684 314L1687 316L1690 315L1695 307L1699 303L1704 291L1710 288L1713 282L1719 279L1718 274L1720 275L1721 280L1718 283L1720 283L1723 280L1724 273L1721 269L1719 265L1722 261L1728 260L1730 255L1728 254 M1676 320L1677 319 M1677 319L1677 316 M762 500L771 499 M851 611L843 626 M1452 319L1443 324L1442 333L1438 337 M1441 338L1438 337 M1438 337L1434 338 M1163 316L1166 316 M1164 317L1165 318 M1161 314L1144 310L1130 310 M1166 315L1162 314 M1293 362L1298 368L1302 369 M1076 447L1075 443 M1044 638L1044 639 M1051 622L1054 617 M1044 639L1045 640 M1044 638L1045 635 M1027 695L1022 708 M899 405L906 406 M905 362L891 362 M859 362L891 362 M890 377L890 379 M899 377L898 379 M899 377L891 377 M880 378L859 377 M882 379L882 377 M1062 606L1064 603 M1058 611L1059 610 M914 376L911 376 M1642 379L1645 373 M1728 254L1725 248L1733 246L1732 243L1737 235L1736 229L1733 227L1732 224L1730 223L1730 207L1724 205L1726 202L1725 198L1713 198L1709 194L1715 186L1717 176L1718 177L1718 187L1716 191L1718 192L1721 180L1722 173L1729 162 M1460 -241L1459 -237L1457 -234L1455 -225L1451 -220L1442 -211L1445 -202L1445 -195L1449 -187L1443 -181L1438 -173L1428 -170L1437 -165L1438 -161L1437 -156L1439 -153L1436 -149L1435 -143L1431 -132L1430 -126L1427 -122L1424 -114L1427 -109L1425 -99L1419 -85L1422 -80L1424 -72L1430 -70L1434 -67L1432 -55L1437 -52L1436 -48L1440 -44L1439 -39L1440 -36L1438 -30L1440 -27L1441 -15L1446 1L1443 3L1440 1L1441 -6L1443 -8 M1443 -8L1444 -9 M1444 -9L1446 -7L1447 -2L1451 1L1449 15L1446 16L1444 13L1444 9L1447 6 M954 633L963 604L961 600 M780 2L781 8L779 15L782 19 M1037 416L1030 415 M1010 414L1014 414 M1040 417L1054 418 M1116 427L1113 429 M1115 420L1116 422 M1103 425L1105 423 M1113 438L1112 438 M1112 438L1112 439 M1103 423L1102 422 M1112 439L1112 439 M1111 439L1112 439 M1107 429L1105 429 M1077 450L1078 447 M1072 448L1076 450 M1076 447L1078 447 M1076 447L1072 448 M1166 425L1158 424 M548 734L548 734 M595 721L595 721 M628 778L599 767L591 762 M629 779L628 778L628 779 M879 831L874 839 M906 831L891 821 M888 822L881 829 M910 834L906 831 M880 832L880 832 M890 818L890 818 M927 408L948 409 M760 107L759 108 M760 70L761 72L769 73L768 75L772 79L763 82L761 86L755 92L756 97 M782 26L781 27 M777 35L774 37L770 43L764 48L764 50L768 56L768 58L764 62L760 63L760 69 M757 -68L752 -65L753 -60L749 -60L746 -56L742 -54L742 -52L744 -49L750 -47L747 -42L752 -37L755 -37L760 -38L763 -35L768 -34 M760 69L760 70 M1017 455L1020 461 M1018 454L1013 446 M857 361L858 362L859 361 M805 421L801 426 M816 418L830 411 M857 361L842 363L831 367 M829 368L814 374 M802 436L802 432 M821 390L834 384 M832 410L847 403 M815 418L816 418 M829 410L816 417 M829 368L831 369L831 367 M841 381L850 378 M816 392L806 397 M831 368L846 363L857 362 M846 402L831 409 M815 376L829 369 M837 384L838 384 M771 499L776 499 M778 497L776 498 M302 783L294 785L279 796L265 814 M352 777L338 777L324 781L308 782 M305 783L305 783 M522 769L522 769 M368 771L368 771 M422 769L424 768L425 766 M421 765L418 765 M675 509L677 508 M1344 392L1345 391 M1181 164L1178 152 M1059 473L1062 472 M1078 363L1077 366 M1116 399L1113 399 M1120 399L1124 399 M1156 398L1140 399 M1119 366L1136 370 M1137 382L1134 399 M978 541L987 535 M990 534L1008 523 M1021 516L1021 516 M1039 504L1041 504L1046 513 M1007 522L987 535 M1043 500L1061 486 M1008 520L1008 521 M1042 569L1043 570 M1013 605L1016 606 M1043 570L1043 571 M1013 605L1011 603 M1011 604L1013 605 M1059 538L1070 544 M1019 554L1020 555 M943 619L946 616 M932 562L957 550 M1006 517L1007 519 M1006 517L1006 517 M1037 502L1035 501L1030 493L1026 481 M1025 481L1030 494L1037 503 M943 614L941 616 M942 618L943 619 M1021 461L1018 454 M1020 462L1024 478 M1021 515L1009 521 M2020 431L2017 448 M655 48L662 43L675 40L685 41L691 39L695 42 M78 347L71 359L71 387 M83 338L79 345 M759 108L759 118 M1186 315L1186 314 M1186 308L1186 307 M762 129L767 135L774 154 M895 659L898 655 M903 651L898 655 M845 627L843 626 M845 627L845 624L852 612 M524 680L523 681 M1108 324L1106 326 M954 369L943 371 M967 369L968 369 M964 369L963 368 M964 369L967 369 M968 368L972 368 M967 367L963 368 M1172 265L1173 268L1167 280 M1160 320L1161 318L1164 317 M1160 316L1160 318 M1145 365L1126 360 M1085 356L1087 350 M1126 339L1125 342 M1468 308L1462 312 M1043 569L1043 570 M1074 588L1074 589 M1073 590L1074 590 M1067 584L1059 580 M1075 588L1074 588 M1067 584L1073 588 M1113 422L1116 422 M1167 426L1167 426 M1154 426L1156 425 M1175 425L1176 425 M959 549L963 548 M957 550L959 549 M962 546L960 548 M956 530L947 511 M963 548L969 545 M956 531L956 531 M952 410L963 410 M973 409L967 409 M952 408L950 407L948 408 M948 408L927 407 M851 610L851 611 M833 595L843 600L849 610 M850 609L843 600L836 595 M957 549L939 558L931 560 M901 527L901 527 M902 562L900 527 M901 562L888 562 M1003 487L1004 508 M787 532L786 531 M785 532L787 532 M1367 386L1356 383L1344 385 M655 413L652 412 M75 320L83 317 M427 275L426 275L425 275 M1251 401L1252 402 M547 735L550 736 M550 736L548 732 M543 737L546 735 M543 737L528 754L523 767 M543 729L544 732 M543 729L541 726 M411 764L404 762L393 756L384 755L374 759L369 769 M429 769L425 766 M424 769L429 769 M418 765L421 767 M525 682L527 684 M527 684L525 682 M159 299L157 298 M137 290L113 287 M166 302L159 299 M635 412L609 419L599 417L580 418L567 414 M652 412L654 414 M523 769L523 767 M930 561L903 562 M58 318L45 314L35 313L19 314L3 321L1 324L3 330L0 333L-8 338L-20 340 M770 404L772 404 M772 404L770 403 M1460 315L1466 321 M1469 324L1468 323 M1461 315L1461 314 M1319 287L1319 296L1321 308 M1233 313L1233 310 M1232 293L1232 300 M1233 310L1233 308 M1232 292L1240 288 M1217 288L1220 287L1231 292 M1231 292L1220 287L1217 287 M1239 287L1232 291 M1216 287L1219 282 M1222 322L1204 328L1199 327 M1231 315L1232 314 M1232 313L1231 315 M1234 316L1234 313 M1233 314L1234 316 M1192 273L1191 280 M1246 400L1250 401 M1195 192L1199 202 M1199 202L1197 220 M1199 202L1199 201 M1197 198L1198 198 M1196 194L1196 195 M1162 461L1163 459 M1162 461L1170 451 M1456 338L1457 338 M1466 338L1468 339 M1468 325L1467 337 M1466 338L1462 338 M1148 422L1147 422 M1251 279L1250 284L1254 282L1256 283 M74 389L95 385L98 385L101 389L104 402 M73 389L74 389 M4 448L4 448 M61 400L61 400 M6 448L5 448 M29 429L28 431 M63 400L72 390 M5 449L6 448 M4 449L3 451 M28 431L30 430 M72 388L71 387 M71 387L70 388 M3 451L4 450 M6 448L28 431 M41 421L61 402 M60 401L47 415L40 420 M972 541L973 543 M908 509L901 524 M908 509L909 508 M907 508L908 509 M1085 466L1069 470 M1174 397L1167 397 M1058 536L1058 536 M1057 537L1058 536 M892 563L902 562 M930 562L932 562 M905 562L930 562 M930 561L930 562 M878 563L871 562 M859 554L790 533 M978 541L977 539 M962 546L963 548 M1023 515L1022 514 M1022 514L1021 515 M1007 522L1008 523 M1158 458L1148 469 M1088 467L1087 466 M1021 515L1021 516 M931 560L930 561 M1191 282L1191 283 M1193 303L1192 299L1192 291 M1192 279L1192 276 M1225 320L1231 315 M1203 342L1210 335 M1200 333L1201 341 M1243 358L1244 358 M1233 314L1234 313 M1232 313L1232 314 M1232 314L1233 314 M1244 360L1245 358 M1252 402L1253 402 M1167 426L1167 425 M1169 425L1171 425 M1168 440L1170 440 M1143 438L1151 440 M969 592L968 592 M1095 553L1096 550 M968 592L967 594 M1178 152L1176 140 M1193 188L1194 191 M1011 604L1011 603 M1009 604L1011 604 M1010 603L1009 602 M1073 545L1078 548 M1034 614L1046 620 M816 418L816 417 M848 402L848 401 M848 401L847 401 M857 398L857 399 M847 403L848 402 M888 402L888 403 M860 398L859 397 M860 400L860 398 M857 399L859 400L860 400 M816 417L814 417 M814 417L815 418 M846 402L847 403 M1084 467L1085 468 M1093 467L1088 467 M1143 437L1133 436L1122 437 M1100 474L1101 474 M1171 442L1158 458 M1229 392L1231 393 M1227 391L1229 392 M1146 365L1147 363 M1154 424L1153 422 M1154 424L1153 424 M1153 422L1153 424 M1134 412L1133 413 M1152 425L1152 426 M1152 425L1154 425 M1152 426L1154 426 M1151 431L1150 432 M1135 414L1147 422 M1166 425L1165 426 M1122 462L1123 461 M1194 355L1186 357 M1169 315L1165 313 M1148 353L1145 365 M1121 359L1112 357L1105 357 M881 431L881 430 M889 404L891 403 M1134 399L1140 399 M887 439L894 446L898 455 M859 397L857 398 M881 430L882 429L880 428 M968 368L967 367 M963 368L963 369 M963 369L963 369 M967 367L967 367 M967 367L967 369 M972 368L972 366 M963 368L963 368 M882 379L882 379 M881 379L882 379 M898 655L895 656 M983 537L977 539 M661 787L660 787 M660 787L651 787L629 779 M776 498L771 499 M776 499L779 499 M957 531L962 544 M967 594L954 606 M941 616L939 619 M923 634L914 642 M939 619L936 622 M939 619L941 618 M946 616L947 613L968 595 M1062 607L1062 606 M1059 610L1062 607 M1118 418L1119 417 M1114 419L1113 420 M1112 422L1113 422 M1123 415L1125 414 M1105 423L1107 424 M1107 424L1109 424 M1113 429L1109 429 M899 455L895 447L888 440 M883 434L881 430 M484 282L492 295L493 301 M469 270L469 270 M473 271L482 276 M517 774L520 774 M519 772L517 774 M479 786L496 784L517 774 M479 786L476 784 M475 786L479 786 M469 783L446 775 M473 783L469 783 M469 783L472 785 M1061 626L1062 627 M1062 627L1070 630 M1069 595L1070 595 M1072 593L1073 590 M1064 603L1066 600 M1067 600L1067 598 M446 775L445 775 M445 775L445 775 M943 371L936 372 M1241 286L1240 286 M1241 287L1241 286 M472 783L472 783 M1059 536L1058 536 M1456 338L1450 339L1443 339 M87 326L87 332 M-26 467L-22 462L-16 460L-12 457L-3 458L3 451 M1462 338L1462 338 M1462 338L1458 337 M86 307L86 308 M86 308L83 315 M503 353L494 307 M1074 589L1073 590 M1075 588L1078 583 M1074 590L1075 588 M900 404L891 402 M906 405L900 404 M1056 537L1048 539 M1098 541L1099 539 M1070 544L1073 545 M1151 473L1153 471 M1094 399L1103 399 M1160 318L1160 320 M1126 338L1109 323 M1126 339L1148 351 M1126 338L1126 339 M169 306L171 305L170 303L169 303L168 304 M168 303L166 302 M166 302L168 304 M171 308L171 305 M169 306L171 308 M1340 346L1340 348 M1066 600L1067 600 M716 65L721 70L728 72L724 80L725 85L730 87L735 87L740 90L747 92L749 104 M714 509L727 504L762 500 M714 509L714 509 M1789 34L1787 32 M1175 425L1172 425 M1177 397L1174 397 M889 404L888 408L882 417 M882 417L880 426 M1195 355L1195 355 M1081 457L1078 451 M1786 51L1785 46 M1238 339L1234 316 M1170 360L1168 359 M1174 397L1174 397 M1046 513L1050 520 M1051 521L1057 533 M1058 533L1051 521 M1051 520L1047 513 M1051 520L1051 520 M959 636L954 633 M936 622L923 634 M1242 358L1243 358 M1243 362L1244 360 M1120 506L1124 501 M1047 513L1041 504 M1117 405L1116 403 M1116 403L1116 399 M1121 410L1117 405 M1100 538L1101 536 M1062 451L1056 452 M1079 549L1083 551 M1077 368L1077 369 M1090 396L1084 383 M1091 343L1087 350 M1158 315L1159 317 M1137 370L1142 376 M1142 376L1144 371 M1140 379L1142 376 M1162 356L1158 354 M1169 432L1155 432 M1103 425L1103 424 M1154 426L1154 425 M1068 491L1073 488 M1092 557L1088 565 M1099 362L1119 366 M1042 662L1049 644 M968 607L961 630 M903 562L905 562 M902 562L901 562 M967 364L967 367 M967 409L963 409 M1175 360L1182 358 M1194 357L1195 355 M1195 355L1200 346 M1182 358L1183 359 M1163 313L1162 314 M1165 313L1167 284 M1124 458L1128 457 M1045 569L1043 569 M1374 390L1367 386 M1398 393L1399 395 M1185 317L1186 315 M1443 339L1441 338 M1268 402L1257 402 M1232 304L1232 303 M1192 291L1193 285 M1186 357L1184 357 M1340 322L1340 322 M1234 313L1233 313 M1094 445L1098 443 M1173 264L1172 265 M936 372L914 376 M911 376L900 378 M900 378L899 377 M882 377L881 377 M898 379L900 378 M1172 260L1170 253 M1194 283L1193 282 M1054 418L1069 420 M1086 466L1085 466 M1130 311L1130 310 M1004 416L1005 416 M1010 414L1009 413 M1009 413L1008 412L1005 412 M948 409L950 411 M948 408L948 409 M952 410L952 408 M973 409L973 411 M977 412L977 410 M974 412L977 412 M880 428L881 431 M891 403L891 402 M1192 273L1192 267 M1152 351L1126 338 M1344 385L1338 387 M1181 328L1185 317 M1338 321L1339 321 M1342 373L1345 351L1344 347 M1332 390L1327 392 M837 382L836 382 M1092 477L1096 474L1100 474 M1085 466L1084 467 M1109 323L1108 323 M1109 324L1109 323 M1154 470L1162 461 M1153 440L1159 440 M1123 461L1124 458 M1288 356L1289 357 M1154 431L1154 428 M885 563L878 563 M1088 566L1089 565 M973 543L978 541 M1046 497L1039 502 M1010 522L1009 521 M1008 523L1009 523 M1009 521L1007 522 M1280 203L1278 207L1280 214 M1210 335L1222 323 M1232 301L1232 300 M1219 282L1221 276 M1217 287L1216 287 M1217 288L1217 287 M1240 344L1241 346 M1232 313L1232 313 M1233 313L1232 313 M1240 288L1241 287 M1232 293L1232 292 M1252 357L1264 357 M1340 339L1340 342 M1306 315L1305 317 M1430 361L1430 362 M1432 362L1432 361 M1432 361L1432 360L1430 361 M1332 371L1332 390 M1107 439L1106 439 M1110 439L1107 439 M1013 446L1010 436L1008 417 M1021 461L1021 461 M1020 461L1020 462 M1007 417L1008 417 M1008 417L1010 414 M1192 267L1192 265 M1197 220L1194 248 M1192 265L1193 258 M1675 334L1672 324L1676 320 M1628 395L1628 395 M1610 402L1622 397 M981 582L983 580 M982 580L968 592 M849 610L850 613 M849 610L851 611 M914 642L903 651 M968 595L970 594L969 592 M941 616L941 616 M1011 603L1010 603 M1009 603L1009 604 M852 610L851 610 M1009 602L1009 603 M941 616L942 618 M946 616L945 614 M945 614L943 614 M833 595L834 593 M852 612L852 610 M851 611L852 612 M437 296L433 288 M898 455L897 457 M900 458L900 456 M897 457L900 458 M1087 469L1088 467 M1153 438L1151 438 M1151 438L1151 440 M1072 419L1069 419 M789 401L772 404 M968 369L968 369 M836 384L837 384 M1086 526L1076 531L1060 536 M1108 323L1108 324 M847 401L846 402 M710 822L707 815L673 789L668 786L661 787 M1029 692L1029 691 M1029 691L1041 664 M1044 639L1044 638 M1170 239L1169 241L1170 242 M1170 242L1171 241L1170 239 M1170 203L1171 202 M1173 265L1173 264 M1165 318L1166 318 M1045 635L1051 622 M1169 251L1170 253 M832 594L833 595 M843 626L843 627 M1166 315L1165 313 M1172 265L1172 265 M1130 310L1130 309 M1130 309L1129 309 M1169 200L1170 203 M1119 366L1119 369 M963 369L964 369 M1191 283L1191 283 M1129 312L1130 312 M1130 312L1130 311 M963 409L952 408 M950 411L951 411 M951 411L952 410 M974 408L973 409 M1118 465L1122 462 M1110 470L1118 465 M1119 457L1117 458 M1109 440L1111 439 M1120 437L1117 438 M1114 439L1116 439 M1078 447L1084 447 M1077 450L1076 447 M1076 450L1077 451 M1074 439L1074 439 M1075 443L1074 442 M1069 470L1062 471 M1074 477L1071 480 M1081 471L1080 472 M1069 481L1065 483 M1079 473L1077 475 M1073 488L1075 487 M1087 480L1091 478 M1075 487L1087 480 M1083 420L1076 420 M1112 439L1110 439 M1112 439L1114 439 M1111 422L1110 423 M1116 420L1118 418 M1113 422L1115 420 M1123 413L1119 416 M1086 421L1083 420 M1106 423L1102 422 M1116 422L1116 427 M1104 426L1103 425 M1105 429L1104 426 M1123 413L1123 412 M1113 399L1116 399 M1103 399L1108 399 M1113 399L1108 398 M1108 399L1113 399 M1108 398L1094 398 M1020 555L1032 563 M1083 551L1084 552 M1038 543L1026 550 M1015 558L1020 555 M1001 568L1006 565 M998 570L1000 569 M1019 554L1015 557 M1060 536L1059 536 M1000 568L998 569 M1015 557L1010 561 M1000 569L1001 568 M1010 562L1015 558 M1006 565L1010 562 M1010 561L1000 568 M1048 540L1057 537 M992 573L982 580 M983 580L998 570 M998 569L992 573 M1038 544L1048 540 M1048 539L1038 543 M1020 555L1026 551 M1051 622L1061 626 M1074 589L1074 590 M1074 588L1073 588 M1074 590L1075 590 M1078 581L1077 583 M1077 583L1074 588 M1082 576L1088 566 M1097 546L1097 545 M1078 583L1082 576 M1052 576L1045 571 M1059 580L1052 576 M1098 542L1098 541 M1136 489L1143 481 M1135 490L1136 489 M1146 478L1148 476 M1130 495L1134 491 M1169 451L1170 451 M1170 451L1171 452 M1163 459L1169 451 M1106 526L1108 524 M1114 512L1120 506 M1111 518L1113 514 M1151 440L1153 440 M1458 69L1461 59L1462 54L1458 49L1457 42L1442 36L1436 40L1432 41L1412 39L1403 40L1396 38L1391 47L1381 52L1368 56L1361 53L1354 58L1348 57L1341 59L1334 58L1332 61L1335 65L1335 67L1327 70L1314 68L1307 64L1304 63L1302 63L1295 72L1293 77L1289 83L1289 91L1285 91L1282 99L1282 104L1286 111L1287 115L1283 116L1281 113L1280 114L1281 118L1278 127L1280 131L1277 135L1276 143L1279 149L1277 156L1277 185L1278 192L1282 198L1281 201 M1151 424L1148 422 M1153 424L1151 424 M1127 413L1129 413 M1125 414L1127 413 M1129 413L1132 413 M1132 413L1135 414 M1136 414L1134 413 M1133 413L1123 413 M1054 452L1048 453 M275 313L273 313 M212 319L206 321L197 328L182 327L177 323L171 308 M1447 6L1451 9 M1459 31L1465 40L1465 62L1466 69L1465 71L1462 72L1459 71L1458 69 M1424 394L1424 395 M1426 395L1424 394 M1431 364L1433 368L1430 374L1428 382L1425 384L1424 394 M1431 364L1432 362 M1433 360L1435 355L1443 346L1443 339 M1399 395L1400 396 M891 379L898 379 M1134 491L1135 490 M1148 476L1150 474 M1124 501L1130 495 M1102 534L1103 533 M1113 514L1114 512 M1108 524L1111 518 M1103 533L1106 526 M1101 536L1102 534 M1053 417L1044 417 M1058 418L1056 418 M1103 423L1105 423 M1090 421L1089 421 M1060 418L1058 418 M1076 420L1074 419 M1074 419L1072 419 M1099 422L1096 422 M1072 420L1083 421 M1089 421L1086 421 M1086 421L1087 422 M1096 422L1090 421 M1069 420L1072 420 M1056 418L1053 417 M1069 419L1060 418 M1083 421L1085 421 M1044 417L1040 416 M1091 422L1095 422 M1103 424L1103 423 M1014 414L1016 415 M1031 416L1035 416 M1026 416L1028 416 M1018 415L1023 415 M1035 416L1037 417 M1023 415L1019 414 M1016 415L1018 415 M1028 415L1023 415 M1030 415L1030 415 M1023 415L1026 416 M1028 416L1029 416 M1019 414L1009 413 M1061 486L1062 486 M1062 472L1063 472 M1065 471L1068 471 M1080 468L1084 467 M1062 471L1061 471 M1068 470L1074 469 M1102 440L1100 441 M1090 445L1083 446 M1090 446L1091 446 M1084 447L1090 446 M1078 451L1077 450 M1077 451L1080 457 M1072 448L1069 449 M1107 440L1109 440 M1120 438L1123 437 M1123 437L1134 437L1143 438 M1122 437L1120 437 M1134 412L1134 413 M1134 409L1134 412 M1116 418L1114 419 M1120 416L1123 415 M1119 417L1120 416 M1145 420L1143 418 M1119 416L1116 418 M1156 424L1154 424 M1113 420L1111 422 M1156 425L1165 426 M1143 418L1139 415 M1139 415L1136 414 M1148 422L1145 420 M1153 424L1152 425 M1154 428L1154 426 M1152 429L1151 431 M1165 426L1165 426 M1165 426L1167 426 M1167 425L1166 425 M1099 539L1100 538 M1124 457L1122 457 M1168 425L1167 425 M1153 471L1153 470 M1153 470L1154 470 M1074 442L1074 440 M1074 440L1074 439 M1069 449L1066 450 M1056 452L1054 452 M1080 457L1085 466 M1093 444L1092 445 M1092 445L1093 445 M1093 445L1094 445 M1091 445L1090 445 M1100 442L1102 441 M1092 445L1091 445 M1105 440L1102 440 M1094 444L1093 444 M1083 446L1076 447 M1091 446L1091 446 M1100 441L1094 444 M1098 443L1100 442 M1102 441L1107 440 M1063 472L1065 471 M1068 471L1068 470 M1061 471L1059 472 M1077 468L1080 468 M1074 469L1077 468 M1079 473L1079 473 M1082 471L1081 471 M1071 480L1069 481 M1084 469L1082 470 M1071 480L1071 480 M1076 476L1074 477 M1080 472L1079 473 M1082 470L1082 471 M1077 475L1076 476 M1066 450L1062 451 M1098 465L1097 465 M1099 464L1098 465 M1128 457L1124 457 M1115 458L1114 458 M1128 457L1131 457 M1117 458L1115 458 M1131 457L1137 454 M1130 456L1128 457 M1109 459L1106 460 M1103 461L1099 464 M1097 465L1093 467 M1106 460L1103 461 M1114 458L1109 459 M1109 423L1106 423 M1106 439L1105 440 M1117 438L1113 438 M889 401L888 402 M281 311L275 313 M477 664L472 663 M522 679L477 664 M1095 422L1103 423 M705 833L703 844L704 851 M705 851L703 843L707 833 M872 843L861 861L857 865 M1452 319L1453 319 M523 767L522 769 M110 404L107 404 M208 414L205 412 M200 412L203 413 M104 402L106 404 M38 423L40 422 M1322 308L1320 297L1321 288 M1323 309L1331 310 M1322 310L1322 308 M324 530L309 511L299 490L286 479L277 463L245 447L225 431L221 427 M428 625L408 611L377 586 M1027 695L1029 692 M1151 435L1151 438 M1155 433L1155 432 M1154 431L1151 431 M1087 466L1086 466 M-40 345L-58 346L-87 349L-102 348L-114 343 M273 313L249 317L236 314L212 319 M168 304L169 306 M157 298L144 292L137 290 M1250 401L1250 401 M1226 388L1227 388 M1153 438L1153 435 M1151 438L1143 437 M1155 433L1158 433 M898 379L898 379 M58 318L58 318 M75 320L67 320L58 318 M890 379L891 379 M890 379L890 379 M891 377L890 377 M891 379L891 377 M890 377L882 377 M1338 387L1337 388 M1052 519L1054 516L1073 505 M1202 344L1203 342 M1200 346L1202 344 M1201 342L1203 342 M1201 342L1202 344 M1201 341L1201 342 M1321 309L1322 310 M1045 640L1050 642 M1154 434L1155 433 M1431 363L1432 362 M1627 395L1625 396 M1608 402L1610 402 M1241 287L1240 286 M1239 287L1240 288 M1239 287L1239 287 M1240 286L1239 286 M1240 286L1240 286 M1231 292L1231 293 M1231 292L1231 292 M1232 291L1231 292 M1232 292L1232 291 M1232 293L1232 293 M709 825L710 822 M1459 314L1454 317 M1453 318L1452 319 M1454 317L1453 318 M1340 322L1341 324 M1341 324L1341 323 M1338 321L1337 322 M1627 395L1628 395 M1087 422L1091 422 M1307 315L1317 310L1321 309 M1126 360L1121 359 M550 729L556 724L564 720L579 717 M548 732L550 729 M579 717L585 719 M585 715L577 716 M963 410L973 411 M1170 203L1171 206 M1162 314L1161 314 M1163 313L1161 314 M563 415L563 414 M559 419L555 421L553 421 M563 414L562 414 M907 406L912 407 M923 407L912 406 M1176 433L1177 433 M839 382L841 381 M973 411L974 412 M1000 413L1004 414 M1004 414L1004 415 M1160 178L1159 176 M1254 253L1253 257 M1278 217L1277 218 M1280 214L1278 217 M1281 202L1280 203 M1281 201L1281 202 M1433 361L1433 360 M1152 351L1150 351 M1148 351L1148 353 M1178 337L1179 334 M1195 355L1194 355 M1787 32L1786 27 M774 154L781 165 M652 412L635 412 M1159 317L1160 318 M1161 314L1160 316 M1126 339L1126 339 M912 407L923 408 M912 406L906 405 M987 535L983 537 M987 535L990 534 M902 562L903 562 M1109 429L1107 429 M1250 401L1251 401 M906 405L906 405 M906 406L907 406 M577 716L563 719L555 723L547 730 M1674 335L1675 334 M1170 440L1171 441 M1596 408L1596 407 M759 120L759 121 M759 121L759 122 M1159 440L1168 440 M562 414L563 415 M1147 422L1152 425 M1467 323L1468 325 M1467 337L1466 338 M1468 339L1467 337 M628 779L629 779 M891 402L889 401 M1331 310L1336 313L1338 320 M1178 434L1179 439 M1043 569L1042 569 M798 400L789 401 M799 399L798 400 M821 390L819 390 M820 391L821 390 M816 392L818 392 M817 391L816 392 M756 97L760 107 M972 541L964 544 M1269 403L1268 402 M1044 571L1045 571 M1045 571L1045 570 M945 614L945 614 M941 618L942 618 M1078 548L1078 549 M1393 390L1374 390 M1334 354L1332 371 M1091 478L1092 477 M1251 289L1247 289L1244 282L1241 286 M695 42L700 42L706 47L712 61L716 65 M757 121L759 121 M759 122L760 125 M781 165L784 173 M807 422L815 418 M801 426L807 422 M802 432L801 426 M708 828L709 825 M708 830L708 828 M365 775L368 774 M690 508L705 510L714 509 M365 775L352 777 M370 772L369 769 M851 610L850 609 M1176 433L1176 433 M1169 425L1168 425 M1167 426L1169 425 M836 595L834 594 M759 118L759 120 M760 125L762 129 M785 174L785 175 M1184 454L1185 457 M1153 441L1153 440 M1152 440L1153 441 M1451 9L1453 19L1459 31 M1029 416L1031 416 M1030 415L1028 415 M1255 250L1254 253 M1186 305L1186 305 M1168 359L1162 356 M814 417L805 421 M1153 435L1154 434 M1153 439L1153 438 M1151 438L1151 438 M1151 435L1153 435 M1159 440L1153 439 M1153 440L1153 439 M1150 433L1153 433 M1171 432L1169 432 M1176 432L1171 432 M1160 434L1161 434 M1162 434L1167 434 M1153 431L1150 432 M1155 432L1154 431 M1158 424L1156 424 M1150 433L1151 435 M1158 433L1159 433 M1159 433L1160 434 M1172 206L1171 202 M1163 316L1164 317 M1044 639L1044 639 M677 508L674 507 M494 307L493 301 M1629 394L1630 393 M1628 395L1629 394 M1193 281L1192 279 M1191 280L1191 282 M1193 282L1193 281 M1171 440L1170 440 M1161 434L1162 434 M880 426L880 428 M1193 284L1194 283 M1192 276L1192 275 M1192 276L1192 273 M1167 434L1171 434 M1171 434L1176 433 M-20 340L-40 345 M1789 36L1789 34 M1730 160L1734 151L1733 143L1735 138L1741 135L1740 127L1743 122L1750 116L1755 115L1759 112L1766 102L1765 99L1771 89L1787 92L1785 86L1784 72L1782 69L1788 65L1783 59L1786 56L1786 51 M1729 162L1730 160 M1140 382L1140 379 M1142 376L1137 382 M1061 485L1046 497 M1023 515L1039 504 M889 563L892 563 M1158 315L1159 315 M1339 321L1339 321 M1269 403L1269 403 M1177 433L1178 434 M1116 399L1119 399 M1345 391L1344 385 M1133 399L1134 399 M1124 399L1133 399 M1119 399L1120 399 M1057 614L1058 611 M1056 615L1057 614 M1040 503L1041 502 M1041 504L1040 503 M1039 502L1038 503 M1041 502L1043 500 M1039 504L1040 503 M1038 503L1036 504 M1036 504L1022 514 M1468 323L1467 323 M1466 321L1467 323 M1468 323L1466 321 M1628 394L1628 395 M1457 337L1456 337 M1458 337L1457 337 M1457 338L1458 337 M1456 337L1456 338 M1460 315L1461 315 M1460 315L1460 315 M1459 314L1460 315 M1460 313L1459 314 M1460 313L1460 313 M1116 439L1120 438 M1041 664L1041 663 M259 821L262 819 M261 818L259 821 M860 400L863 399 M1187 360L1191 359 M1224 322L1225 320 M1108 324L1109 324 M1461 314L1460 313 M1462 312L1460 313 M1461 314L1462 312 M1089 565L1093 557 M1088 565L1078 581 M1622 397L1624 396 M1136 370L1137 370 M891 362L905 363 M891 362L859 361 M562 414L562 414 M563 414L563 414 M563 415L563 415 M563 415L567 414 M562 414L560 417 M567 414L563 414 M560 417L563 415 M557 422L559 419 M555 423L556 423 M557 420L556 423 M560 417L559 419 M558 427L557 422 M524 680L522 679 M522 679L523 681 M308 782L304 782 M304 784L308 782 M352 777L352 777 M1246 400L1246 400 M1170 251L1169 251 M1170 250L1169 251 M1170 251L1170 250 M999 413L1000 413 M968 369L968 368 M874 839L873 839 M874 840L874 839 M872 842L872 843 M872 843L873 843 M1160 327L1160 320 M836 382L836 383 M837 382L837 382 M838 383L837 382 M838 383L839 382 M839 382L837 382 M836 383L836 384 M834 384L836 384 M836 383L834 384 M838 384L838 383 M1052 519L1052 519 M85 336L83 338 M86 334L86 334 M86 333L87 332 M87 332L85 333 M85 336L86 334 M85 334L85 336 M1151 440L1151 440 M427 276L427 275 M425 275L427 276 M880 378L881 379 M1291 358L1292 361 M1317 372L1324 374L1328 383L1327 390 M1159 339L1159 337 M1159 344L1159 339 M1159 339L1159 344 M1159 344L1159 339 M1160 329L1160 327 M1159 334L1160 329 M1160 320L1160 327 M1159 334L1160 329 M1160 327L1160 320 M1158 346L1159 345 M1160 329L1159 334 M784 173L785 174 M786 175L785 174 M916 838L910 834 M845 629L845 627 M821 612L818 613 M821 612L820 614 M822 615L822 614 M823 616L822 614 M822 614L822 613 M977 539L972 541 M969 545L973 543 M1166 316L1166 315 M1227 388L1234 376 M1625 396L1624 396 M1302 369L1313 373L1317 372 M1292 361L1293 362 M264 817L265 814 M265 814L262 816 M1150 432L1150 433 M1144 371L1146 365 M1077 369L1084 383 M1058 536L1056 537 M1154 425L1156 425 M1327 392L1313 398L1299 398L1292 399 M1006 517L1006 517 M1006 517L1005 508 M1004 508L1006 517 M1005 508L1003 487 M1012 446L1013 448 M1013 448L1017 455 M1134 413L1133 413 M1134 413L1135 414 M1133 413L1133 413 M1085 421L1086 421 M1085 421L1086 421 M1115 420L1116 420 M1123 351L1122 354 M1124 346L1123 348 M1121 357L1121 359 M1120 362L1120 364 M1120 364L1119 366 M1119 370L1118 373 M1119 369L1119 370 M1118 373L1118 373 M1118 373L1118 375 M1118 375L1117 377 M1117 377L1117 377 M1117 377L1116 381 M1116 382L1116 386 M1116 381L1116 382 M1116 381L1116 381 M1116 387L1116 388 M1116 388L1116 390 M1116 386L1116 387 M1116 390L1116 390 M1116 390L1116 392 M1116 393L1116 396 M1116 392L1116 393 M1116 396L1116 399 M1122 354L1121 357 M1123 348L1123 351 M1124 343L1124 346 M1125 342L1124 343 M1075 589L1075 588 M1075 590L1075 589 M1073 588L1074 589 M1025 551L1019 554 M1026 550L1025 551 M1026 551L1038 544 M1194 252L1194 252 M1194 252L1194 248 M1193 258L1193 257 M1193 257L1194 252 M1193 258L1193 258 M964 544L963 545 M963 545L962 546 M947 511L946 508 M806 397L799 399 M850 378L859 377 M956 369L954 369 M956 370L963 369 M1070 595L1072 593 M1069 596L1069 595 M1068 598L1069 596 M1067 598L1068 598 M1054 617L1056 615 M1046 620L1051 622 M1031 613L1034 614 M1028 612L1031 613 M1023 610L1028 612 M1016 606L1023 610 M1011 603L1011 603 M1043 571L1043 571 M1040 568L1042 569 M1049 644L1050 642 M1171 425L1172 425 M1179 333L1181 328 M1186 314L1186 308 M1186 305L1186 307 M1186 307L1186 307 M1199 201L1198 196 M1194 191L1195 192 M1150 313L1155 314 M1162 314L1163 316 M1166 316L1170 316 M1160 316L1163 316 M1165 313L1163 313 M888 563L889 563 M790 533L787 532 M1183 359L1187 360 M1341 323L1340 322 M1393 390L1393 390 M1130 297L1129 309 M1130 295L1130 297 M1106 326L1095 336L1091 343 M1053 453L1054 452 M1006 417L1007 417 M1005 416L1005 417 M1005 417L1006 417 M1004 415L1004 416 M556 423L556 423 M556 423L557 422 M1093 444L1093 444 M1091 445L1091 445 M1091 446L1092 445 M1091 446L1091 446 M1052 519L1051 520 M1051 520L1051 520 M1051 521L1051 520 M1051 521L1051 521 M1050 521L1051 521 M1050 520L1050 521 M1050 520L1050 520 M1051 520L1050 520 M1306 316L1306 315 M1233 308L1232 307 M962 544L963 545 M1340 342L1340 346 M1327 390L1327 392 M1101 474L1110 470 M1159 345L1159 344 M1159 344L1159 344 M1159 337L1159 334 M1160 327L1160 327 M1160 327L1160 327 M1160 320L1160 320 M1000 568L1000 568 M1252 273L1252 275 M1252 275L1252 275 M1252 275L1251 279 M1170 200L1169 200 M1033 564L1035 565 M1035 565L1040 568 M1033 564L1033 564 M1032 563L1033 564 M1232 306L1232 304 M1232 303L1232 301 M1646 369L1646 366L1651 365L1653 362L1658 354L1655 352L1661 346L1662 342L1674 335 M1646 371L1646 369 M1645 373L1646 371 M834 593L832 593 M832 593L832 594 M833 595L833 595 M1077 366L1077 367 M1077 367L1077 368 M872 839L872 842 M875 843L875 841L872 839 M873 843L874 843 M873 843L873 843 M872 842L873 843 M1163 398L1156 398 M881 377L880 378 M1108 324L1108 324 M1232 307L1232 306 M1231 293L1232 293 M1239 286L1239 287 M843 627L842 628 M1469 307L1468 308 M1468 308L1469 307 M1337 388L1337 388 M1234 376L1243 362 M1245 358L1246 359 M899 458L900 459 M418 765L412 764 M412 764L411 764 M945 614L945 614 M954 606L945 614 M967 594L968 595 M1155 432L1153 431 M1153 433L1155 433 M472 272L479 276L484 282 M509 375L507 368 M1256 283L1256 285L1251 289 M1261 240L1255 250 M541 726L527 684 M1152 428L1152 429 M1123 412L1121 410 M427 277L427 276 M1234 394L1246 400 M900 459L900 458 M1305 317L1305 317 M1322 308L1321 309 M367 773L365 775 M369 769L368 771 M1010 523L1010 523 M1010 523L1010 522 M1009 523L1010 523 M1007 519L1008 520 M1009 521L1008 520 M1022 516L1022 516 M1021 516L1022 516 M1022 516L1023 515 M751 108L754 116 M749 104L751 108 M754 116L757 121 M1176 140L1176 139 M445 775L429 769 M1787 41L1789 36 M1785 46L1786 42 M1786 42L1787 41 M770 -33L781 -30L783 -22L791 -21L785 -17L784 -13L779 -6 M768 -34L770 -33 M1274 220L1270 223L1268 222 M778 35L777 35 M781 27L780 33L778 35 M780 1L780 2 M779 -6L780 0 M1094 556L1093 556L1092 557 M1093 557L1094 556 M1092 557L1092 557 M1092 557L1093 557 M1095 553L1093 556 M1078 549L1079 549 M1091 555L1092 557 M1086 553L1088 554 M1084 552L1086 553 M1096 550L1096 549 M1096 549L1097 546 M1096 550L1096 550 M1097 545L1097 545 M1088 554L1091 555 M1094 556L1095 553 M1093 556L1091 555 M1468 325L1469 324 M1193 285L1193 284 M1196 194L1195 192 M1198 196L1196 194 M1222 323L1224 322 M1191 283L1191 284 M1102 422L1099 422 M1045 570L1045 570 M1043 571L1044 571 M583 756L569 746L550 736 M583 756L585 758 M586 757L583 756 M589 761L591 762 M591 762L589 759 M585 759L585 759 M525 682L525 682 M523 681L523 681 M523 681L524 682 M524 682L525 682 M525 682L525 681 M525 681L525 681 M525 681L525 680 M525 680L524 680 M524 680L524 680 M780 0L780 1 M782 19L782 26 M780 2L780 2 M831 367L829 368 M859 361L857 361 M107 288L94 296L88 302L86 307 M107 288L113 287 M113 287L107 288 M677 508L690 508 M888 562L886 563 M1041 663L1042 662 M424 764L421 765L421 768 M425 766L424 764 M355 568L346 561L324 530 M377 586L357 570 M261 818L262 819 M261 817L261 818 M262 816L261 817 M264 817L262 816 M264 819L264 817 M357 570L355 568 M421 768L422 769 M871 562L861 555 M859 554L861 555 M861 553L859 554 M862 553L861 553 M861 555L862 553 M898 455L898 455 M899 455L898 455 M888 440L883 434 M881 431L887 439 M969 605L968 607 M961 630L959 636 M79 345L78 347"/></g>
<g class="mp-r1" fill="none" stroke="#34507D" stroke-width="0.9" stroke-linecap="round" stroke-linejoin="round"><path d="M892 659L893 660 M1090 595L1090 596 M1114 554L1090 595 M1090 596L1115 554 M1164 485L1171 476 M1019 651L1018 649 M1169 317L1169 320 M1163 484L1162 485 M1114 553L1114 554 M1114 553L1102 573 M1074 630L1073 629 M1137 454L1139 454 M1211 426L1251 413 M1253 412L1211 426 M1086 526L1087 529 M1162 486L1159 490 M1087 525L1085 524 M1098 541L1095 537 M1003 486L1022 481 M1110 427L1111 433 M1111 427L1111 427 M1111 433L1111 436 M1136 452L1131 450 M1204 433L1199 440 M1175 470L1172 474 M1172 440L1174 440 M843 452L840 452 M1339 393L1329 397 M871 772L873 778 M1111 433L1111 427 M1180 283L1178 315 M1180 283L1194 283 M835 750L835 750 M833 749L829 748L825 745 M1521 370L1521 393 M1045 444L1042 444 M1072 632L1055 668 M1054 671L1056 668 M1181 283L1181 282 M1181 165L1175 168 M1150 474L1153 476 M1306 406L1295 407 M1631 432L1632 432 M1290 299L1291 299 M1283 251L1271 261L1267 263L1260 262L1255 258 M1823 445L1817 444 M846 757L835 750 M1521 393L1521 393 M1823 445L1824 445 M1191 283L1181 282 M2319 455L2322 458 M993 619L991 620L991 622 M600 484L580 465 M446 330L437 368L418 418 M1016 649L1003 633 M1160 174L1157 175L1159 176 M1160 175L1166 172 M1157 176L1151 178L1148 177 M994 376L996 377 M928 333L925 330 M449 328L449 327 M1018 652L1023 656L1041 664 M1092 524L1087 525 M658 466L658 472 M419 418L438 368L448 330 M1523 393L1524 377 M1524 374L1525 370 M1524 370L1523 370 M1605 410L1602 409 M1523 410L1571 416 M1489 402L1507 409L1521 410 M1526 370L1525 368 M1599 424L1602 424 M1602 424L1622 428 M1607 412L1606 411 M1523 393L1523 393 M930 431L935 453 M938 458L933 430 M936 458L936 459 M910 363L908 360 M907 365L911 375 M912 375L908 364 M1340 393L1339 393 M1409 399L1399 395 M1063 341L1061 344 M936 464L936 467 M1054 671L1042 696 M1043 696L1054 671 M1094 397L1092 396 M1539 351L1538 353L1531 359L1525 368 M1541 351L1541 349L1539 349 M1541 351L1543 355L1542 359 M1544 356L1544 355L1541 351 M1173 315L1171 315 M1177 315L1173 315 M1179 315L1178 315 M1173 317L1177 317 M1165 282L1165 282 M1270 422L1281 416 M1339 394L1340 393 M1340 393L1344 392 M1177 317L1178 317 M1177 339L1178 337 M1175 360L1177 339 M1168 359L1168 360 M1167 347L1168 359 M868 769L864 766 M864 766L846 757 M863 766L868 769 M1180 282L1179 282 M1174 282L1179 283 M1238 300L1232 300 M1175 440L1175 439 M1175 440L1175 440 M1182 462L1178 467 M1186 457L1197 444 M1176 419L1178 414 M1176 425L1176 419 M1177 397L1175 360 M1171 450L1171 452 M1146 470L1150 474 M1163 484L1160 482 M1151 473L1148 469 M1137 454L1141 461 M1631 432L1637 441 M1629 424L1616 421L1612 416 M1562 402L1557 401 M1441 399L1450 398 M1703 443L1701 444 M969 701L972 701 M972 701L993 703L1021 709L1032 707L1040 700 M1040 700L1043 699L1043 696 M444 326L433 320L426 318L392 317 M1540 347L1539 349 M892 657L890 656 M895 660L895 659 M895 659L893 656 M843 630L892 659 M845 629L842 628 M820 616L822 615 M820 616L843 630 M842 628L841 627 M820 614L818 613 M777 602L776 600 M784 533L785 534 M787 539L788 546 M785 534L787 539 M1489 392L1485 392 M1633 431L1632 426L1629 424 M1814 447L1818 445 M1818 445L1823 445 M1817 444L1814 446 M1698 446L1690 451 M706 830L705 830L705 832 M746 842L746 840 M785 850L746 841 M788 850L785 849 M2078 457L2080 458 M2098 460L2105 461 M1812 449L1814 447 M2207 467L2208 467 M2208 467L2214 466 M935 701L938 701 M938 701L947 700 M969 699L938 699 M1033 705L1027 708L1019 708L972 700 M934 699L927 698L920 696 M907 680L915 692 M916 692L908 679 M920 696L934 700 M509 375L484 354 M536 402L532 397 M637 512L635 510 M932 425L930 426 M933 426L926 409 M848 495L850 495 M907 505L896 503 M909 505L907 505 M910 507L934 508L944 507 M983 497L985 495 M1023 480L1023 480 M659 462L658 462 M1063 346L1064 348 M1087 350L1074 344 M1629 424L1632 426L1632 430 M893 660L895 663 M907 677L897 664 M1174 170L1183 192 M1172 168L1169 170 M1175 169L1181 166 M1174 167L1173 167 M1098 542L1100 544 M1115 551L1113 551 M1090 596L1090 596 M993 623L1001 632 M993 619L991 622 M1001 632L1002 633 M995 618L993 619 M1002 632L994 622 M983 629L975 637 M991 622L994 620 M631 509L629 508 M637 512L643 513 M634 512L637 512 M635 510L633 508L631 509 M629 508L600 484 M1002 633L1016 649 M775 602L774 602 M753 674L760 681L765 691 M765 691L761 682L754 673 M804 725L765 691 M1553 401L1541 399 M927 407L925 405 M1411 398L1409 399 M1439 396L1430 396 M1416 399L1428 399 M1400 396L1408 400 M924 406L915 382 M912 378L922 404 M926 360L917 362L910 362 M910 363L920 363L935 360 M908 360L907 353L911 344L916 339L926 333 M1257 412L1253 411 M1253 411L1253 412 M1209 428L1210 426 M1260 415L1257 412 M1254 412L1255 412 M1267 421L1265 421 M1255 410L1253 411 M2322 458L2324 455 M2318 452L2319 455 M2331 458L2327 457L2322 455 M2320 455L2320 456 M2322 458L2331 458 M2322 455L2319 455 M2318 452L2318 457L2313 459 M2319 455L2317 458L2313 459 M1006 381L1014 370L1031 362 M1174 282L1169 282 M990 491L985 494 M985 494L978 499L971 500 M1043 392L1065 398 M1045 448L1047 455L1052 463 M1045 444L1045 442 M1053 463L1048 453 M1053 463L1048 455L1046 448 M1041 429L1042 436 M1040 392L1041 393 M1052 463L1057 472 M1110 423L1109 422 M1110 426L1110 427 M1096 434L1101 433 M1110 424L1110 423 M1110 423L1110 423 M1109 423L1109 423 M1112 438L1112 439 M1112 439L1112 439 M1112 439L1112 439 M1108 422L1109 423 M1109 423L1109 424 M708 832L746 841 M1004 379L1002 379 M983 631L991 622 M908 679L907 677 M947 700L958 699L969 701 M1040 699L1032 705L1022 708 M1031 362L1047 355 M1010 369L1005 374L1004 379 M1185 164L1182 164 M805 318L803 319L804 321 M819 390L815 377 M804 321L812 374 M813 378L818 390 M766 404L759 406 M838 423L838 423 M842 451L841 434 M759 406L766 405 M837 420L831 411 M818 392L820 391 M837 424L839 428 M813 378L815 376L814 374 M766 404L766 405 M830 412L836 421 M825 496L829 496 M782 499L785 498 M779 499L783 530 M825 495L814 495 M785 530L783 527L781 513 M844 494L844 495 M783 530L783 532L785 532 M786 534L785 532 M789 553L789 543L788 539 M788 539L786 534 M667 415L664 416 M667 418L670 418 M673 506L669 496L662 487L662 483 M711 414L710 413 M674 507L671 506L669 508 M658 417L662 417 M659 415L658 413 M1149 180L1157 176 M1141 175L1139 177L1141 179 M791 176L789 175 M784 201L784 200 M1358 270L1358 270 M1043 447L1052 463 M1098 408L1099 407 M1105 357L1100 361 M1089 398L1083 398 M1040 391L1019 387L1006 381 M1005 381L1003 380 M1089 398L1089 398 M1003 380L1002 379 M924 409L929 422L929 426 M1070 544L1063 552 M939 466L939 464 M936 467L936 467 M1072 542L1073 545 M1046 448L1044 442 M1038 415L1038 418 M1044 442L1045 448 M958 357L957 354 M949 357L953 356 M2041 452L2044 452 M2167 469L2171 469 M2171 468L2171 469 M2041 452L2041 452 M1044 442L1042 429 M1166 172L1170 171 M1170 171L1173 170 M1169 170L1166 172 M1166 172L1160 174 M1185 192L1184 192 M804 245L805 243 M802 240L802 240 M907 680L908 679 M907 677L906 678 M906 678L907 680 M1041 664L1053 670 M1041 663L1035 660 M1044 694L1055 671 M1053 671L1041 696 M1073 633L1074 630 M1071 632L1054 668 M1056 669L1074 632 M1090 597L1116 554 M1088 598L1077 619 M1074 630L1089 599 M775 604L819 616 M847 493L842 478 M842 478L842 454 M841 478L845 492 M788 555L788 553L787 554 M781 513L781 502L782 499 M819 392L829 409 M776 600L781 582 M787 554L781 576 M774 602L775 604 M669 464L668 465 M662 483L662 483 M663 464L667 464 M661 480L659 473 M659 484L669 498L671 506 M935 360L949 357 M954 355L953 356 M935 359L926 360 M924 332L910 344L907 351L906 360 M803 318L797 308 M814 374L811 363L805 320 M1063 483L1064 486 M1065 486L1064 483 M1064 486L1067 491 M1064 483L1059 474 M875 777L868 769 M945 505L939 488L938 481 M946 506L944 505 M972 501L971 500 M1001 486L1001 487 M985 495L990 492 M990 492L1001 487 M841 454L841 478 M830 409L823 399L820 392 M821 741L817 738 M817 738L804 725 M716 652L680 634L668 634L658 638 M829 733L828 736 M659 638L665 636L675 634 M716 652L724 657 M826 747L827 748 M724 656L716 652 M765 691L803 726 M803 726L807 730 M724 657L743 667L751 673 M752 672L724 656 M658 472L658 473 M825 746L826 747 M659 473L660 466 M658 473L658 481 M815 738L823 744 M711 414L759 406 M670 418L672 417 M629 508L630 510 M653 511L659 510 M1172 379L1173 385 M1173 385L1173 388 M841 434L841 451 M840 427L838 423 M841 434L840 427 M839 428L841 434 M1322 285L1320 285L1319 286 M1348 290L1350 290L1350 288L1349 287L1348 288 M1203 284L1202 283 M1202 284L1203 284 M1241 253L1237 255L1231 265L1223 271 M1202 283L1197 283 M1195 283L1194 283 M1223 297L1223 297 M1224 298L1227 301L1232 301 M1213 288L1217 294L1223 296 M1249 302L1259 303L1268 301L1283 304L1290 299 M1290 299L1282 304L1268 300 M1241 253L1248 254L1255 258 M1291 298L1304 289L1310 287L1319 287 M1319 286L1303 288L1291 298 M1179 283L1180 283 M1179 282L1174 282 M839 627L823 616 M1224 271L1231 265L1234 259 M1241 253L1241 253 M1203 284L1209 283L1214 281L1224 271 M1187 163L1185 164 M1194 157L1193 158 M1193 158L1187 163 M794 495L785 496 M814 495L805 494L794 495 M1001 486L990 491 M1192 212L1192 227 M1193 212L1190 206 M1521 370L1521 370 M1523 370L1521 370 M391 316L391 316 M936 467L936 469 M936 469L937 478 M910 506L907 505 M906 506L910 507 M1042 446L1046 445 M1680 456L1673 457L1663 455 M1687 454L1694 451L1702 450 M1038 415L1038 405L1040 395L1041 393 M1040 392L1037 411 M1056 472L1040 476 M1173 388L1174 396 M1170 316L1173 317 M1112 438L1112 436 M855 277L855 276 M788 546L787 553 M852 272L853 274 M777 603L775 602 M895 660L892 657 M1067 491L1072 500 M1137 454L1137 454 M1164 485L1163 484 M1162 485L1162 486 M1179 467L1184 460 M1136 453L1137 454 M1199 441L1205 433 M1177 468L1175 470 M1138 451L1136 452 M1139 454L1139 453 M892 657L892 659 M1171 442L1171 444 M1172 431L1172 434 M1181 164L1181 165 M1178 315L1177 315 M1183 192L1182 194L1185 195 M1178 414L1178 406 M1183 192L1185 195 M1182 166L1183 165 M1010 603L1009 604 M1003 611L1010 604 M829 410L830 411 M832 410L831 409 M831 409L829 410 M830 411L832 410 M967 502L972 501 M971 500L970 499 M1003 486L1003 485 M971 500L967 501 M968 500L967 502 M1003 485L1002 485L1001 486 M967 502L970 503L972 501 M970 499L968 500 M972 501L983 497 M1001 487L1003 487 M1061 344L1061 345 M1065 340L1063 341 M1063 346L1068 342 M1141 461L1141 461 M1143 460L1139 454 M833 749L832 751 M835 750L834 749 M1085 356L1097 361 M1094 398L1094 397 M972 366L967 364 M1094 400L1094 399 M974 367L994 376 M2299 410L2308 414L2312 419L2315 426L2318 452 M2345 456L2346 457 M2345 457L2346 457 M2345 456L2345 457 M2348 457L2347 456 M2347 457L2348 457 M2345 457L2337 457 M1705 443L1703 443 M789 185L789 188 M790 188L790 186 M790 186L791 183 M789 184L789 185 M849 268L850 269 M783 201L784 210L788 217 M849 268L844 264 M789 188L784 199 M784 200L790 188 M804 245L806 245 M787 218L790 223 M667 464L668 465 M669 464L667 464 M849 759L863 766 M998 616L1000 614 M1011 603L1021 594 M1000 614L1003 611 M1127 430L1114 430 M1096 434L1114 430L1128 431 M1128 431L1149 433 M1093 433L1091 434 M930 431L933 430 M933 430L934 427L932 425 M930 426L928 428L930 431 M744 839L743 839 M746 840L744 839 M746 840L746 840 M785 849L784 851 M779 499L782 499 M782 577L788 555 M780 581L781 581 M780 581L775 599 M872 499L887 501 M873 498L873 498 M850 495L855 496 M855 496L867 498 M867 498L872 499 M896 503L889 501 M889 501L888 501 M886 500L886 500 M647 512L653 511 M643 513L647 512 M659 510L667 509 M994 620L993 619 M991 622L991 622 M991 622L993 623 M358 314L350 317 M361 314L362 314 M1058 474L1061 479 M1146 470L1145 471 M1087 529L1089 530 M1047 355L1048 354 M1048 354L1057 349 M1181 282L1180 282 M1192 283L1191 283 M1197 283L1195 283 M1194 283L1192 283 M1180 282L1180 283 M1162 282L1151 284L1132 290 M1132 290L1129 292 M1048 353L1047 354 M1165 282L1162 282 M1165 282L1165 282 M1067 340L1066 341 M1066 341L1066 342 M1129 292L1127 292 M1047 354L1017 367 M1080 327L1071 337 M1066 342L1061 345 M1127 292L1106 304L1089 319 M1089 596L1088 596 M1090 597L1090 596 M1090 596L1089 596 M1056 668L1055 668 M1055 668L1054 668 M1056 668L1056 668 M1054 668L1053 669 M2231 464L2229 464 M2231 465L2239 464 M1450 398L1459 398 M1408 400L1413 399 M1637 441L1642 444 M1656 451L1663 456L1669 457L1679 457L1687 454 M1642 444L1650 446L1656 451 M1524 369L1524 370 M1526 370L1542 359 M1073 629L1072 632 M1074 630L1089 599 M878 314L883 315 M1322 287L1328 286 M1348 288L1345 290L1340 290L1329 286 M1350 287L1354 278 M1328 286L1340 290L1348 290 M1175 408L1172 426 M1174 397L1175 408 M1063 552L1060 554 M1063 552L1070 545 M835 750L835 750 M829 750L829 748 M310 308L303 307 M387 316L388 316 M920 696L918 694 M915 692L917 694 M1111 436L1112 438 M1112 436L1111 433 M1179 315L1181 283 M1178 315L1178 317 M1070 545L1073 545 M1115 554L1117 552 M1087 525L1086 526 M1088 527L1087 529 M954 355L955 358L958 358 M958 358L972 367 M954 354L935 339 M944 506L934 508L910 506 M946 507L967 502 M1181 282L1187 271L1189 261 M1093 401L1107 421 M877 313L878 314 M580 465L571 455L567 440L559 428 M1232 301L1238 300 M1232 300L1227 300L1225 298 M803 240L802 240 M1257 412L1255 410 M908 321L919 327 M878 314L877 313 M1174 440L1175 440 M1175 471L1178 468 M1236 256L1241 253 M1190 206L1185 195 M1190 206L1192 212 M825 745L824 743 M825 740L822 742 M827 738L829 737 M827 738L825 740 M828 736L828 736 M794 305L785 295L784 287 M828 736L827 738 M829 737L829 736 M834 264L822 264L814 254 M843 264L844 264 M793 266L798 260L802 252 M790 223L794 230L802 240 M793 266L785 283 M786 282L792 268 M858 283L859 284 M835 264L843 264 M844 264L849 268 M843 263L842 263 M843 263L844 264 M843 264L843 263 M1690 451L1687 453 M1701 444L1698 446 M967 501L946 506 M1142 517L1147 509 M1164 486L1164 485 M972 367L974 367 M967 364L958 357 M1329 286L1322 285 M1859 443L1862 442 M1859 443L1858 442 M1175 434L1176 430 M1176 430L1176 425 M1251 413L1254 412 M2314 422L2311 416L2304 411 M853 274L853 274 M856 279L858 283 M851 271L852 272 M850 269L851 271 M853 274L856 279 M805 243L805 243 M804 243L804 245 M805 243L803 239 M996 377L1003 381 M996 376L972 366 M1569 403L1562 402 M1596 408L1579 405 M1131 534L1126 542L1116 551 M2322 455L2319 448L2314 422 M1184 460L1186 457 M994 620L995 618 M1109 424L1110 426 M1064 348L1067 349 M1067 349L1085 356 M1071 343L1068 342 M1099 362L1099 363 M1171 315L1170 316 M1095 380L1094 385 M1169 320L1167 347 M1073 438L1059 441 M1081 437L1086 436 M1048 453L1046 446 M1042 436L1043 443 M925 330L922 328 M924 331L927 333 M1105 357L1087 350 M1169 282L1174 282 M895 663L896 664 M897 664L896 663 M896 664L906 678 M1090 596L1090 596 M1056 668L1073 633 M1117 552L1127 541L1131 536 M1557 401L1553 401 M1080 398L1078 398 M1080 399L1089 399 M992 702L972 699 M1524 377L1524 374 M1524 374L1524 370 M1525 370L1526 370 M1525 368L1524 369 M1524 369L1525 370 M1503 392L1498 392 M1092 524L1089 526 M1043 392L1040 391 M1046 444L1042 445 M1060 442L1074 439 M1185 195L1185 195 M1185 195L1186 194 M1186 194L1185 192 M1185 195L1190 206 M1185 195L1184 192 M1057 472L1058 474 M935 339L928 333 M933 337L934 339 M1188 261L1187 265 M807 246L809 248 M803 240L792 226L785 210L784 201 M802 240L805 243 M805 243L803 240 M1039 417L1038 415 M1042 429L1040 421 M1167 280L1166 280 M1046 444L1045 444 M923 407L923 408 M924 406L923 407 M927 408L927 407 M1043 392L1042 391 M908 364L910 363 M1175 168L1174 167 M1175 170L1175 169 M1181 165L1181 166 M1172 168L1173 170 M1073 344L1071 343 M1092 396L1089 398 M1136 452L1136 452 M1136 452L1136 453 M873 779L875 780 M875 780L876 778L873 778 M1253 411L1253 411 M1185 192L1185 192 M1205 433L1209 428 M1145 468L1146 470 M1147 467L1143 461 M1139 453L1139 452 M1139 452L1138 451 M1169 282L1165 282 M1102 573L1089 596 M1169 282L1168 280 M1166 284L1167 284 M1115 551L1114 552 M1161 487L1157 494 M1162 486L1164 486 M1046 445L1060 442 M1062 482L1063 483 M1046 446L1046 446 M1046 445L1046 444 M1046 446L1046 445 M1043 447L1046 446 M1056 669L1056 668 M1053 671L1054 671 M1055 671L1056 669 M1117 552L1116 551 M1116 554L1117 553L1117 552 M1071 632L1074 632 M1073 629L1072 630 M1074 632L1074 630 M1018 652L1019 651 M1043 696L1043 696 M1088 598L1088 599 M1089 599L1090 597 M1026 389L1043 392 M1042 391L1041 391L1040 392 M1290 299L1290 299 M1178 405L1178 404 M1465 392L1462 393 M1430 396L1426 395 M1424 395L1411 398 M1429 399L1439 399 M1109 432L1114 431 M1040 476L1026 479 M1059 474L1057 471 M1072 500L1074 505 M1087 529L1086 530 M1016 649L1016 649 M1016 652L1018 652 M1016 649L1016 652 M993 623L994 622 M1003 633L1002 632 M994 622L994 620 M1178 337L1178 333 M1459 393L1455 393 M1459 398L1480 399L1489 402 M1542 359L1544 356 M781 581L782 578L781 577 M361 313L361 313 M655 413L654 414 M667 415L667 417 M553 421L536 402 M445 328L446 330 M449 327L447 326 M670 465L669 464 M840 452L840 454 M660 463L659 462 M303 307L300 308 M299 308L281 311 M654 414L653 417L655 419 M655 419L658 417 M349 317L328 315L313 309 M313 309L310 308 M447 326L446 327 M843 454L843 452 M660 465L660 463 M658 466L660 465 M840 454L843 454 M668 465L670 465 M658 462L657 464L658 466 M1184 459L1182 462 M631 509L630 510 M634 512L635 510 M630 510L631 511 M783 495L778 497 M778 497L779 499 M785 498L783 495 M848 493L845 492L844 494 M848 495L848 494 M785 530L783 530 M844 495L846 496L848 495 M936 464L939 464 M939 464L940 461L939 459 M819 390L818 390 M769 405L770 403 M769 402L768 402 M667 417L667 418 M670 418L670 416 M658 413L656 413 M658 417L659 415 M768 402L766 404 M670 416L669 414L667 415 M927 333L933 337 M934 339L954 355 M1085 524L1082 518 M1082 518L1074 503 M1091 532L1090 530 M1003 487L1003 486 M906 360L905 363L907 365 M788 851L785 850 M743 840L708 831 M746 841L784 851L809 861 M708 833L708 831 M743 839L743 841 M743 841L744 842 M1072 542L1070 544 M1168 280L1167 280 M1167 284L1169 282 M1043 392L1043 392 M1041 393L1043 392 M1168 360L1172 379 M1133 291L1151 285L1165 282 M1165 282L1169 282 M1165 281L1165 282 M1166 280L1165 281 M1165 282L1166 284 M1005 382L1017 387L1026 389 M1002 379L996 376 M1057 349L1062 346 M1004 379L1003 380 M1159 176L1160 175 M1175 169L1175 168 M1066 341L1065 340 M1173 170L1175 170 M1181 166L1182 166 M789 184L791 183 M784 199L783 199 M784 200L784 199 M783 201L784 201 M782 200L783 201 M785 183L787 184 M1118 445L1120 446 M1115 444L1113 441 M1112 442L1114 444 M1112 439L1112 438 M1112 439L1112 442 M1111 427L1110 424 M1107 421L1108 422 M1109 422L1094 400 M1078 398L1075 398 M1049 393L1043 392 M1058 395L1049 393 M1061 396L1058 395 M1071 399L1078 399 M1075 398L1061 396 M1065 398L1071 399 M1083 398L1080 398 M1038 418L1039 420 M1057 471L1055 467 M1041 429L1044 442 M1010 604L1011 603 M1009 604L1003 609 M1003 609L995 618 M1043 571L1045 570 M1027 587L1028 586 M1024 589L1020 593 M1028 585L1026 587 M1039 574L1035 578 M1028 586L1032 583 M1035 578L1028 585 M1017 597L1010 603 M1026 587L1024 589 M1032 583L1043 571 M1045 570L1045 569 M1045 569L1043 571 M1042 571L1039 574 M1052 562L1045 569 M1058 557L1063 552 M1060 554L1054 560 M1047 568L1053 561 M1078 537L1077 538 M1102 513L1101 515 M1073 542L1072 542 M1075 540L1075 540 M1104 511L1104 512 M1094 521L1094 522 M1096 519L1095 521 M1126 490L1125 491 M1139 477L1139 477 M1132 484L1131 485 M1131 485L1127 489 M1115 501L1114 502 M1100 543L1098 541 M1110 550L1107 548 M1100 544L1103 546 M1088 527L1087 525 M1090 530L1088 527 M1095 537L1091 532 M1089 530L1091 533 M1171 452L1171 453 M1171 466L1171 468 M1171 453L1171 466 M1171 468L1171 474 M1153 476L1158 481 M1153 475L1152 474 M1158 480L1153 475 M1158 481L1162 485 M1866 442L1876 440 M1962 438L1962 438 M1882 438L1882 438 M1633 430L1631 430L1631 432 M1632 432L1633 431 M2017 448L2020 448 M2067 456L2071 456 M1633 431L1633 431 M1633 431L1633 430 M1186 457L1184 459 M1185 457L1184 458 M1862 442L1866 442 M2289 461L2298 460 M1610 414L1609 413 M1609 413L1608 412 M1611 414L1610 414 M1612 416L1611 414 M1399 395L1394 393L1373 391L1363 387L1353 387L1345 391 M924 409L925 409L927 408 M907 360L906 360 M1053 669L1053 670 M1101 433L1102 433 M1102 433L1109 432 M1091 434L1081 436 M1110 430L1093 433 M1114 431L1128 431 M1037 411L1037 413 M1037 413L1038 415 M1043 433L1042 430 M1039 420L1040 425 M1042 430L1042 429 M1045 442L1043 433 M1040 421L1039 417 M1040 425L1041 429 M1053 464L1053 463 M1055 467L1053 464 M1061 479L1062 482 M1081 516L1086 526 M1070 496L1068 491 M1068 491L1065 486 M1113 552L1114 552 M1103 546L1105 547 M1105 546L1100 543 M1105 547L1113 552 M1107 548L1106 547 M1091 533L1091 533 M1092 534L1093 535 M1091 533L1092 534 M1093 535L1098 542 M1113 441L1112 439 M1134 430L1127 430 M1131 450L1125 447 M1120 446L1124 447 M1125 448L1131 450 M1125 447L1120 445 M1124 447L1125 448 M1131 450L1136 452 M1120 445L1117 444 M1143 461L1143 460 M1141 461L1144 465 M1172 434L1171 438 M1171 438L1171 439 M1172 426L1172 431 M1171 444L1171 449 M1171 449L1171 450 M1109 507L1108 508 M1114 502L1110 506 M1104 512L1102 513 M1101 515L1100 516 M1140 476L1139 477 M1099 517L1096 519 M1095 521L1094 521 M1126 490L1126 490 M1093 523L1092 524 M1106 510L1105 510 M1108 508L1106 510 M1105 510L1104 511 M1125 491L1124 492 M1094 522L1093 523 M1089 526L1088 527 M1100 516L1099 517 M1124 492L1123 493 M1139 477L1135 481 M1110 506L1109 507 M1145 471L1144 473 M1120 496L1118 498 M2175 469L2189 468 M2171 468L2171 468 M1113 551L1110 550 M1143 513L1131 532 M1154 497L1154 497 M1153 498L1147 507 M1156 494L1155 495 M1120 547L1116 550 M1122 545L1121 546 M1124 543L1122 545 M1129 535L1129 535 M1116 550L1115 551 M1159 490L1157 493 M1157 493L1157 493 M1154 497L1153 498 M1121 546L1120 547 M1129 535L1128 538 M1155 495L1154 497 M1128 538L1124 543 M1131 536L1142 517 M1131 532L1129 535 M1147 507L1146 509 M1140 476L1140 476 M1127 489L1126 490 M1122 494L1121 494 M1121 494L1120 496 M1123 493L1122 494 M1135 481L1132 484 M1118 498L1115 501 M1079 536L1079 537 M1079 537L1078 537 M1086 530L1079 536 M1075 540L1073 542 M1077 538L1075 540 M1540 347L1540 343 M1541 350L1540 347 M1160 482L1158 480 M1152 474L1151 473 M907 365L908 364 M1084 606L1080 614 M1080 614L1073 629 M1086 436L1096 434 M1071 337L1067 340 M2313 459L2322 458 M908 360L907 360 M1184 192L1175 170 M1184 192L1183 192 M1193 224L1193 212 M1192 227L1188 261 M1189 261L1193 224 M1187 265L1186 271L1180 282 M1178 317L1177 338 M1178 317L1179 317 M1541 399L1533 396 M1354 276L1354 276 M1354 276L1357 270 M1353 278L1349 287 M703 414L694 415 M694 416L703 415 M710 415L710 413 M672 417L670 416 M672 417L685 417 M386 315L373 313L364 313 M2172 469L2172 468 M1081 436L1073 438 M1148 432L1134 430 M1171 476L1173 474 M1171 475L1171 475 M883 315L878 314 M2277 462L2282 461 M1171 474L1171 475 M746 841L743 840 M1162 486L1162 486 M779 499L779 499 M656 413L655 413 M1290 298L1290 298 M930 430L930 431 M929 426L929 427 M2309 459L2313 459 M2066 456L2067 456 M1213 288L1211 285L1205 286L1203 284 M1635 436L1633 431 M1663 455L1651 445L1640 443L1635 436 M1854 443L1857 443 M1854 443L1854 443 M1250 302L1238 300 M1238 300L1248 302 M751 673L752 674 M1539 351L1541 351 M1858 443L1858 443 M1148 469L1147 467 M703 414L703 415 M1043 696L1044 694 M1426 395L1425 395 M1425 395L1424 395 M787 554L788 555 M2229 465L2230 465 M2273 462L2274 462 M2171 468L2167 469 M2175 469L2172 468 M2172 469L2175 469 M2171 469L2172 469 M831 736L832 734 M823 743L821 742 M1882 438L1885 437 M1413 399L1416 399 M1074 439L1081 437 M1106 547L1105 546 M1023 480L1003 485 M1026 480L1040 477 M1062 346L1067 342 M1062 346L1063 346 M1061 345L1048 353 M1061 345L1062 346 M1089 320L1114 300L1133 291 M1067 342L1066 341 M1029 658L1019 651 M1053 561L1058 557 M1089 319L1084 324 M1084 324L1080 327 M1084 324L1089 320 M1067 342L1084 324 M938 458L936 458 M936 459L934 461L936 464 M936 464L936 464 M939 459L938 458 M938 458L938 458 M935 453L936 458 M1173 474L1175 471 M922 404L923 407 M848 494L848 493 M946 506L944 506 M907 505L906 507 M909 507L909 505 M906 507L907 508 M944 507L946 507 M944 508L946 508 M1163 484L1163 484 M996 618L998 616 M995 618L996 618 M1197 443L1186 457 M944 506L944 507 M946 507L946 506 M783 199L782 200 M1040 699L1033 705 M1687 453L1680 456 M1442 395L1439 396 M675 634L686 637L716 652 M807 730L815 738 M784 287L785 286 M785 283L784 287 M785 286L785 283 M708 416L710 415 M685 417L691 416 M1005 382L1006 381 M1260 415L1261 416 M1268 422L1270 422 M1270 422L1267 421 M389 316L388 315 M1171 474L1172 474 M1477 392L1471 392 M1194 283L1202 284 M472 345L470 344 M1178 406L1178 405 M448 330L449 329 M446 330L448 330 M805 243L806 245 M925 405L924 406 M915 382L913 377 M392 317L391 316 M388 315L387 315 M362 314L362 313 M1186 457L1185 457 M1210 426L1209 427 M708 830L706 830 M705 833L708 833 M923 407L923 407 M923 408L924 409 M1234 259L1236 256 M1223 271L1212 282L1203 284 M907 320L899 318 M908 321L907 320 M907 321L908 321 M883 315L907 321 M1186 457L1186 457 M1184 460L1186 460 M1045 569L1047 568 M820 391L819 390 M817 391L818 392 M953 356L935 359 M953 356L954 356 M1261 416L1265 420 M1002 632L1002 632 M1002 633L1002 633 M873 778L873 779 M896 663L895 660 M1489 402L1489 402 M1198 441L1197 443 M1074 344L1073 344 M1265 420L1265 421 M1265 421L1268 422 M1539 349L1539 351 M859 284L862 291 M862 291L863 291 M863 291L870 306 M1446 395L1442 395 M797 308L794 305 M1876 439L1866 442 M1876 440L1876 440 M1876 440L1882 438 M669 508L667 509 M1197 444L1199 441 M1439 399L1441 399 M1211 426L1210 426 M1209 428L1211 426 M1178 468L1179 467 M1178 467L1177 468 M1162 486L1161 487 M1162 488L1164 486 M1141 179L1144 180 M1290 298L1290 299 M1171 440L1171 441 M1857 443L1858 443 M1859 443L1859 443 M1858 443L1859 443 M1858 442L1858 443 M1882 438L1881 438 M1881 438L1876 439 M1885 437L1891 435 M1891 435L1892 435 M1892 435L1896 434L1902 438L1911 449L1923 448 M1923 448L1934 446 M1850 443L1854 443 M1847 444L1850 443 M1844 444L1847 444 M1841 444L1844 444 M1840 444L1841 444 M1840 444L1840 444 M1835 444L1840 444 M1833 444L1835 444 M1827 445L1833 444 M1824 445L1827 445 M1623 429L1631 432 M1171 439L1171 440 M705 832L705 833 M744 842L746 842 M1149 433L1150 433 M1144 465L1145 468 M1197 443L1197 443 M1035 660L1029 658 M1018 649L1016 649 M675 509L674 507 M669 510L672 511 M669 508L669 510 M667 509L669 510 M766 405L767 405 M532 397L532 397 M767 405L769 405 M300 308L299 308 M708 831L708 830 M1171 440L1172 440 M1171 441L1171 442 M1205 286L1210 285L1213 288 M1114 430L1110 430 M1006 381L1006 381 M1003 381L1005 382 M1199 440L1198 441 M1209 427L1204 433 M1253 411L1253 412 M1255 412L1260 415 M1351 288L1368 282L1373 283L1378 285 M1378 285L1373 282L1368 282L1350 288 M1184 458L1184 459 M1184 459L1184 460 M1186 460L1186 457 M1094 399L1094 398 M1280 415L1270 422 M1281 416L1295 408 M1295 407L1293 408 M1295 408L1307 406L1329 397 M1293 408L1286 411 M1329 397L1306 406 M1329 397L1339 394 M1345 391L1340 393 M1344 392L1353 388L1363 387L1373 391L1395 393L1400 396 M1078 399L1080 399 M1117 444L1115 444 M1054 668L1041 663 M1053 670L1053 671 M1054 671L1055 671 M1054 671L1054 671 M1055 668L1054 671 M1072 630L1071 631 M1071 631L1071 632 M1088 599L1084 606 M1088 599L1089 599 M1089 599L1090 596 M1089 599L1089 599 M1087 597L1088 598 M1088 596L1087 597 M1090 596L1088 599 M1115 554L1116 554 M1114 554L1115 554 M1116 551L1115 551 M1116 551L1114 554 M1946 437L1951 437 M2229 464L2229 465 M2080 458L2080 458 M2231 465L2231 464 M2172 468L2171 468 M1521 377L1521 377 M1523 377L1524 377 M1521 377L1523 377 M1521 410L1523 410 M350 317L349 317 M954 355L958 358 M1006 381L1005 381 M1605 411L1605 410 M1606 411L1605 411 M1155 498L1156 497 M1156 497L1162 488 M1154 498L1152 501 M387 315L387 316 M386 315L387 316 M387 315L386 315 M388 316L388 315 M391 316L389 316 M388 316L391 316 M1523 393L1521 393 M553 421L555 423 M555 423L556 423 M556 423L558 427 M1957 437L1961 438 M1985 443L1989 444 M1054 560L1053 561 M819 616L820 616 M820 614L819 616 M822 615L820 614 M1042 696L1041 696 M1041 696L1039 698 M1042 696L1040 699 M1951 437L1956 437 M1956 437L1957 437 M954 355L954 355 M956 353L954 355 M958 358L958 357 M957 354L956 353 M958 357L954 354 M364 313L362 313 M361 313L361 314 M362 313L361 313 M361 313L358 314 M362 314L364 313 M358 314L361 314 M444 326L445 328 M446 327L444 326 M448 330L450 330 M450 330L449 328 M445 327L445 328 M446 327L445 327 M449 329L449 328 M448 330L448 330 M662 416L659 415 M664 416L662 416 M664 417L667 417 M662 417L664 417 M786 175L785 175 M785 175L784 177 M787 184L789 184 M791 183L792 182 M792 182L793 181 M789 175L786 175 M792 182L792 182 M793 181L793 180 M793 180L793 178 M793 178L792 177 M792 177L791 176 M791 176L791 176 M784 177L783 180 M783 180L784 182 M784 182L784 182 M784 182L785 183 M829 750L831 751 M831 751L832 751 M827 748L829 750 M868 769L871 772 M830 733L829 733 M832 734L830 733 M829 736L830 736 M830 736L831 736 M828 736L829 736 M658 638L659 638 M1042 445L1042 446 M1042 447L1043 447 M1042 446L1042 447 M1042 444L1042 445 M1017 367L1012 368 M1012 368L1010 369 M893 656L890 656 M893 660L895 660 M896 662L895 659 M893 656L892 657 M890 656L850 633L845 629 M895 659L895 659 M842 628L843 630 M843 630L845 629 M841 627L839 627 M823 616L822 615 M781 576L781 577 M943 501L944 505 M658 638L658 638 M1115 551L1115 551 M1114 552L1114 553 M917 694L920 696 M918 694L916 692 M1040 699L1040 700 M1043 696L1042 696 M969 699L969 701 M969 699L969 699 M971 698L969 699 M972 698L971 698 M972 699L972 698 M972 699L972 699 M972 700L972 699 M972 701L972 700 M934 699L934 700 M936 698L934 699 M938 699L936 698 M938 701L938 699 M934 700L935 701 M823 744L823 744 M823 744L825 746 M824 744L823 743 M825 745L824 744 M824 743L825 741 M825 741L825 740 M1706 443L1705 443 M1174 396L1174 397 M1150 432L1148 432 M1040 477L1056 473 M1074 505L1075 505 M1074 503L1070 496 M1075 505L1081 516 M937 481L943 501 M938 481L938 478 M938 478L939 467 M937 478L937 481 M944 507L944 508 M944 505L944 506 M946 508L946 507 M854 276L855 277 M855 276L854 276 M844 264L843 263 M842 263L834 264 M1043 571L1042 571 M1053 561L1052 562 M1116 444L1118 445 M1114 444L1114 444 M1020 593L1017 597 M1021 594L1027 587 M1002 704L992 702 M1002 704L1002 704 M1022 708L1002 704 M1178 333L1179 315 M1183 165L1185 164 M1183 165L1182 164 M1182 164L1181 164 M907 508L909 507 M785 532L786 531 M785 532L785 532 M786 531L785 530 M887 501L906 506 M886 500L874 498 M888 501L886 500 M873 498L848 494 M874 498L873 498 M785 286L786 282 M792 268L793 266 M781 577L780 581 M672 511L675 509 M710 415L711 414 M710 413L707 411L703 414 M558 427L559 428 M1172 474L1173 474 M1172 474L1171 475 M1171 475L1163 484 M1077 619L1073 629 M1152 501L1147 509 M1153 501L1155 498 M1153 502L1153 501 M804 243L805 243 M802 240L803 242 M804 246L804 245 M803 239L803 239 M803 239L803 240 M814 254L812 252 M812 252L805 243 M897 318L883 315 M899 318L897 318 M920 327L908 321 M919 327L920 327 M920 327L924 331 M922 328L920 327 M1462 393L1459 393 M1455 393L1446 395 M1471 392L1470 392 M1470 392L1465 392 M1485 392L1477 392 M1496 392L1489 392 M1498 392L1496 392 M1512 392L1511 392 M1511 392L1503 392 M1514 392L1512 392 M1518 392L1514 392 M1521 393L1518 392 M1524 393L1523 393 M1527 394L1524 393 M1533 396L1527 394 M1602 409L1596 408 M1608 412L1607 412 M631 511L634 512 M1178 404L1177 397 M1059 441L1046 444 M1175 439L1175 434 M1170 316L1169 317 M1177 338L1177 339 M1099 363L1098 364 M1097 361L1099 361 M1099 361L1099 362 M1100 361L1099 361 M1100 361L1099 362 M1098 364L1097 369 M1097 369L1095 380 M1094 385L1093 389 M1093 390L1092 396 M1093 401L1094 400 M1091 401L1093 401 M1159 176L1159 176 M1160 175L1160 174 M1173 167L1172 168 M1248 302L1249 302 M1250 302L1250 302 M703 415L708 416 M834 749L833 749 M835 751L835 750 M809 248L820 264L824 265L835 264 M809 248L809 248 M1146 509L1143 513 M1147 509L1153 502 M1147 509L1131 534 M1026 480L1026 479 M1023 480L1026 481 M1023 480L1026 480 M1024 478L1023 480 M1022 481L1023 480 M1026 481L1026 480 M1026 478L1024 478 M1026 479L1026 478 M1026 479L1023 480 M775 599L774 600 M777 603L776 601L774 601 M774 601L774 602 M818 613L781 605L777 603 M841 627L841 627 M1286 411L1280 415 M1428 399L1429 399 M981 632L983 631 M818 390L817 391 M812 374L812 376L813 378 M805 320L805 318 M803 242L804 243 M802 252L804 246 M1040 700L1043 696 M1039 698L1040 699 M526 391L509 375 M532 397L531 396 M531 396L526 391 M2337 457L2331 458 M784 210L787 218 M470 344L456 335 M453 333L450 330 M456 335L453 333 M1203 284L1205 286 M991 622L983 629 M1936 445L1946 437 M1935 446L1936 445 M1934 446L1935 446 M1622 428L1623 429 M1144 180L1148 181L1148 177 M1148 177L1141 175 M788 217L790 223 M1291 298L1290 298 M1291 298L1291 298 M1291 299L1291 298 M1322 287L1322 285 M1321 288L1322 287 M1319 287L1319 287 M1319 286L1319 287 M1319 287L1321 288 M834 752L849 759 M834 752L834 752 M834 752L835 751 M1270 422L1270 422 M1270 422L1270 422 M1270 422L1270 422 M1270 422L1270 422 M832 751L834 752 M1001 487L1001 487 M1114 444L1116 444 M1541 351L1541 351 M1574 404L1569 403 M1576 417L1599 424 M1571 416L1576 417 M1579 405L1574 404 M694 415L685 417 M691 416L694 416 M1348 288L1348 290 M770 403L769 402 M1089 399L1091 401 M821 742L821 741 M2298 460L2299 460 M2299 460L2307 459 M1268 300L1259 303L1250 302 M774 600L772 601 M774 600L774 601 M775 604L777 603 M1157 493L1156 494 M1157 494L1154 498 M1089 398L1089 399 M806 245L807 246 M804 321L805 320 M814 374L812 374 M814 374L814 374 M870 306L874 311L877 313 M1093 389L1093 390 M484 354L472 345 M1141 475L1140 476 M1144 473L1141 475 M751 673L751 673 M752 674L753 674 M753 674L754 673 M752 672L751 673 M754 673L752 672 M2451 446L2442 447 M2347 456L2346 456 M1961 438L1962 438 M1962 438L1978 442 M1978 442L1982 443 M1982 443L1985 443 M1989 444L1990 444 M1990 444L1997 445 M1997 445L2017 448 M2020 448L2024 449 M2024 449L2032 450 M2032 450L2035 451 M2035 451L2041 452 M2044 452L2050 453 M2050 453L2056 454 M2056 454L2065 455 M2065 455L2066 456 M2071 456L2078 457 M2080 458L2081 458 M2081 458L2083 458 M2083 458L2085 458 M2085 458L2098 460 M2105 461L2110 462 M2110 462L2115 463 M2115 463L2119 463 M2119 463L2120 464 M2120 464L2124 464 M2124 464L2130 465 M2130 465L2139 466 M2139 466L2143 467 M2143 467L2147 468 M2147 468L2151 468 M2151 468L2162 469 M2162 469L2165 469 M2165 469L2167 469 M2171 468L2171 468 M2171 468L2171 468 M2189 468L2192 468 M2192 468L2202 467 M2202 467L2207 467 M2215 466L2216 466 M2216 466L2222 466 M2214 466L2215 466 M2222 466L2229 465 M2230 465L2231 465 M2239 464L2243 464 M2243 464L2244 464 M2244 464L2245 464 M2245 464L2256 463 M2256 463L2259 463 M2259 463L2269 462 M2269 462L2273 462 M2274 462L2277 462 M2282 461L2289 461 M2289 461L2289 461 M2307 459L2308 459 M2308 459L2309 459 M2346 456L2345 456 M2346 457L2347 457 M2347 457L2347 456 M2346 456L2346 456 M2352 456L2348 457 M2367 455L2352 456 M2369 455L2367 455 M2378 453L2369 455 M2386 452L2378 453 M2388 452L2386 452 M2397 452L2388 452 M2412 451L2397 452 M2413 451L2412 451 M2429 449L2413 451 M2432 448L2429 449 M2435 448L2432 448 M2442 447L2435 448 M785 498L805 494L818 496L825 496 M829 495L825 495 M844 494L829 495 M829 496L844 495"/></g>
<g class="mp-r0" fill="none" stroke="#5A78AA" stroke-width="1.3" stroke-linecap="round" stroke-linejoin="round"><path pathLength="1" d="M869 892L930 801L934 787L935 764L939 755L948 742L954 727L965 628L969 613L982 574L988 546L989 519L987 438L988 422L992 410L1011 370L1013 362L1009 331L1012 309L1010 290L1012 279L1015 274L1022 268L1049 258L1059 251L1081 223L1088 218L1094 215L1115 211L1123 207L1130 201L1138 191L1157 152L1163 144L1172 139L1180 137L1188 138L1201 143L1216 146L1223 150L1230 160L1235 171L1240 180L1266 204L1278 224L1286 235L1292 241L1323 264L1342 268L1357 274L1369 277L1381 275L1398 265L1407 262L1415 261L1427 264L1436 268L1448 278L1453 288L1460 308L1467 318L1472 322L1480 325L1496 326L1504 327L1529 345L1540 347L1554 344L1560 340L1573 327L1583 322L1592 320L1614 320L1643 312L1654 312L1679 319L1692 320L1722 317L1754 321L1777 317L1788 317L1804 322L1815 329L1823 338L1836 365L1846 374L1860 379L1897 384L1909 384L1935 377L1943 377L1959 383L1966 385L1973 383L1989 376L1995 374L2004 375L2016 380L2024 381L2042 376L2050 375L2059 377L2081 386L2090 387L2096 387L2111 381L2128 381L2140 376L2157 378L2175 373L2192 375L2208 372L2214 373L2222 378L2233 400L2238 405L2245 408L2256 410L2282 403L2309 401L2325 396L2355 380L2395 371L2415 363L2434 350L2464 322L2481 309L2502 300L2534 291L2549 282L2562 270L2578 250"/><path pathLength="1" d="M2575 252L2561 269L2548 281L2533 290L2502 299L2480 308L2463 322L2437 347L2422 358L2399 369L2355 378L2322 396L2310 400L2284 401L2258 409L2245 408L2240 405L2233 399L2225 382L2221 376L2213 372L2208 371L2192 374L2175 372L2158 377L2143 375L2128 380L2111 380L2096 386L2090 387L2082 386L2060 376L2050 374L2043 375L2024 381L2016 379L2006 375L1995 374L1989 375L1973 383L1966 384L1959 382L1943 376L1934 376L1910 383L1896 383L1860 378L1848 373L1837 364L1826 341L1816 328L1801 319L1788 316L1777 316L1754 320L1721 316L1692 319L1679 317L1654 311L1639 312L1614 319L1593 319L1584 321L1573 326L1560 338L1552 344L1542 346L1532 345L1526 342L1504 327L1478 323L1467 317L1461 308L1455 287L1449 277L1437 266L1428 262L1415 259L1407 260L1380 274L1369 276L1357 274L1342 267L1323 263L1296 242L1287 234L1266 203L1241 180L1237 173L1231 159L1225 150L1216 145L1201 142L1188 137L1177 137L1170 139L1165 142L1156 151L1137 190L1126 203L1114 210L1093 213L1083 218L1075 224L1065 243L1058 251L1048 257L1021 267L1014 274L1011 279L1009 290L1011 309L1008 335L1012 362L1010 370L990 413L986 426L988 525L987 546L981 574L968 613L964 629L961 660L953 726L948 740L939 754L935 764L933 788L929 800L869 891"/><path pathLength="1" d="M1171 141L1171 132L1172 126L1181 111L1184 102L1187 79L1185 68L1176 43L1176 0L1158 -35L1153 -39L1135 -47L1130 -54"/><path pathLength="1" d="M1129 -54L1135 -47L1152 -38L1157 -34L1175 0L1175 44L1185 68L1186 76L1182 106L1173 122L1170 131L1171 154L1174 170"/><path pathLength="1" d="M1578 324L1590 322L1595 322L1601 325L1607 331L1618 351L1629 366L1644 377L1673 387L1680 391L1686 397L1690 405L1691 413L1690 428L1694 439L1703 449L1719 455L1767 459L1779 464L1800 461L1804 457L1808 448L1809 440L1807 416L1809 407L1813 401L1819 397L1826 394L1844 395L1852 393L1860 390L1865 386"/><path pathLength="1" d="M1042 445L996 457L966 463L872 453L792 452L711 459L657 473L643 475L632 475L608 471L563 475L547 475L529 473L423 440L383 422L345 415L311 401L295 399L283 401L211 418L200 420L176 419L128 406L116 405L101 408L69 419L52 423L-22 431L-90 434L-107 437"/><path pathLength="1" d="M1864 386L1859 390L1850 393L1823 394L1813 400L1809 406L1807 416L1808 447L1803 458L1798 461L1780 463L1765 458L1717 454L1703 448L1694 439L1691 430L1691 405L1684 393L1675 386L1645 375L1631 366L1622 356L1616 346L1612 335L1609 323L1606 319L1599 318L1586 320"/><path pathLength="1" d="M-106 439L-89 435L-9 431L52 424L70 420L102 409L115 407L131 408L176 420L201 421L224 417L284 402L296 400L311 402L345 416L382 423L422 440L521 472L547 477L563 476L608 472L632 476L646 476L711 460L793 453L873 454L967 464L1001 457L1042 446"/><path pathLength="1" d="M975 637L906 704L888 722L829 840L826 854"/><path pathLength="1" d="M827 851L830 841L889 723L981 632"/><path pathLength="1" d="M418 441L418 436"/><path pathLength="1" d="M1106 212L1093 214L1086 217L1068 234L1055 240L1045 240L1026 237L998 238L988 236L979 232L969 225L948 200L905 166L883 147L871 140L855 138L844 139L832 144L826 148L804 170L769 188L756 198L744 211L732 232L721 264L706 292L702 304L700 315L701 347L691 381L688 396L688 412L691 436L689 451L686 462L680 476L667 494L660 508L654 536L648 551L635 569L609 593L599 605L590 621L586 635L585 655L590 694L591 708L588 730L575 762L572 774L571 787L572 804L578 821L588 837L600 849L619 863"/><path pathLength="1" d="M1175 170L1172 153"/><path pathLength="1" d="M621 860L602 849L589 836L579 820L574 804L572 793L573 774L577 761L589 730L592 708L591 691L586 655L587 635L595 614L604 599L631 575L648 555L656 536L665 502L682 475L687 464L691 449L692 435L689 412L690 394L692 379L702 349L703 337L702 315L703 304L707 292L722 264L733 231L743 214L761 196L776 185L805 171L829 147L842 141L855 139L871 141L883 148L904 167L947 201L968 226L978 233L987 236L999 239L1024 237L1044 241L1055 241L1067 236L1081 221L1092 216"/><path pathLength="1" d="M823 124L816 112L814 102L813 91L816 80L820 71L857 11L881 -41L886 -50"/><path pathLength="1" d="M886 -51L856 11L816 77L811 90L809 103"/><path pathLength="1" d="M923 778L916 779L911 777L846 744L832 734"/><path pathLength="1" d="M831 736L913 779L917 780L922 779"/></g>
<g class="mp-coast" fill="none" stroke="#4A6CA3" stroke-width="1.2" stroke-linecap="round" stroke-linejoin="round"><path pathLength="1" d="M-12 1868L-12 1865L-12 1863L-4 1845L-3 1842L-1 1839L0 1835L4 1826L16 1792L18 1788L18 1785L19 1784L20 1780L26 1761L38 1732L43 1728L49 1726L47 1724L48 1724L53 1731L55 1731L56 1730L57 1726L62 1727L65 1725L80 1694L78 1692L76 1694L75 1694L77 1695L63 1724L49 1717L50 1714L49 1713L49 1712L51 1713L52 1710L61 1715L61 1713L52 1709L53 1707L54 1707L54 1707L55 1707L54 1706L59 1696L68 1700L67 1701L68 1701L69 1700L63 1697L65 1693L64 1692L63 1694L62 1694L61 1691L60 1680L62 1677L65 1672L73 1675L72 1678L73 1677L75 1673L74 1672L73 1675L70 1673L69 1671L69 1665L71 1660L84 1633L87 1631L89 1624L91 1622L98 1605L105 1596L107 1590L111 1585L117 1578L119 1572L121 1570L123 1566L126 1563L139 1550L147 1545L149 1545L161 1544L165 1552L166 1552L162 1545L192 1513L215 1494L225 1488L227 1485L236 1479L247 1472L253 1470L257 1468L269 1471L274 1469L278 1466L289 1466L291 1462L296 1459L296 1457L298 1457L308 1453L309 1454L311 1456L311 1453L313 1452L317 1451L318 1453L319 1451L320 1451L325 1450L329 1447L336 1445L344 1444L346 1446L347 1448L347 1446L349 1444L351 1444L353 1447L355 1447L357 1444L363 1443L365 1444L368 1441L371 1444L375 1444L376 1442L372 1442L371 1439L373 1436L375 1435L377 1437L376 1438L378 1437L377 1436L377 1434L379 1433L382 1433L384 1435L383 1438L384 1438L385 1435L385 1432L392 1429L397 1425L401 1423L406 1422L408 1423L409 1426L412 1426L414 1424L417 1424L420 1426L421 1428L421 1427L425 1428L427 1426L430 1425L431 1425L433 1427L436 1426L437 1426L442 1423L449 1422L452 1420L459 1420L461 1421L465 1422L466 1425L469 1426L473 1428L480 1428L482 1429L483 1431L487 1430L489 1430L490 1432L490 1431L494 1434L499 1431L508 1431L510 1431L516 1437L517 1436L511 1431L511 1426L515 1422L520 1419L535 1418L543 1413L547 1411L548 1410L547 1408L546 1406L544 1405L545 1402L549 1395L555 1384L559 1380L560 1377L569 1366L575 1363L581 1363L582 1356L593 1346L601 1342L617 1339L617 1335L621 1327L627 1322L634 1318L645 1315L654 1316L654 1320L657 1323L660 1322L660 1321L658 1321L657 1320L658 1317L667 1324L666 1324L667 1325L670 1326L673 1323L671 1321L672 1320L669 1323L664 1319L668 1313L676 1318L677 1317L669 1311L669 1310L667 1308L662 1315L657 1312L657 1309L656 1309L655 1306L655 1306L655 1305L658 1304L660 1301L659 1299L660 1298L663 1297L664 1297L667 1297L667 1298L669 1298L670 1299L671 1297L672 1299L673 1300L668 1306L671 1308L671 1307L680 1313L681 1312L673 1307L677 1301L680 1304L683 1300L688 1304L689 1303L688 1304L689 1303L690 1304L689 1305L690 1306L672 1331L671 1330L671 1331L671 1332L667 1333L663 1332L662 1333L662 1334L666 1335L669 1335L672 1334L698 1299L698 1298L697 1297L694 1300L685 1293L688 1281L690 1278L695 1266L705 1251L708 1245L711 1241L715 1232L719 1227L722 1218L725 1214L729 1207L735 1194L736 1192L740 1183L743 1178L744 1176L746 1173L748 1169L753 1164L755 1164L758 1162L758 1160L758 1153L758 1152L765 1143L780 1117L792 1092L801 1076L818 1047L819 1044L841 1013L859 982L886 945L893 937L909 913L943 868L952 853L958 846L959 847L960 847L960 846L959 845L966 837L970 832L975 829L978 828L980 830L985 833L985 830L987 828L990 825L992 826L990 825L991 823L998 818L998 817L1002 815L1003 815L1005 817L1006 816L1006 814L1007 814L1008 816L1007 812L1008 808L1038 748L1039 748L1041 742L1043 737L1044 737L1042 735L1043 733L1044 731L1045 732L1047 732L1047 729L1046 729L1047 728L1048 728L1047 726L1060 694L1064 687L1072 683L1084 688L1085 686L1084 685L1068 679L1068 676L1070 665L1099 600L1126 549L1134 536L1137 532L1141 530L1147 527L1152 526L1157 536L1158 536L1157 531L1151 522L1162 505L1170 511L1171 511L1172 510L1172 488L1172 484L1172 483L1175 482L1177 503L1176 513L1173 535L1169 536L1167 543L1168 543L1167 544L1165 543L1164 544L1164 545L1165 546L1171 547L1175 547L1180 543L1203 546L1204 545L1219 547L1219 546L1207 544L1214 497L1213 497L1213 498L1209 497L1207 494L1197 496L1197 495L1209 492L1209 491L1207 492L1206 488L1205 488L1206 491L1202 492L1194 488L1192 479L1192 479L1201 476L1204 485L1205 485L1203 476L1224 470L1225 469L1224 465L1222 464L1191 474L1189 468L1209 445L1211 447L1212 445L1220 449L1221 448L1218 438L1220 438L1215 432L1217 430L1244 421L1248 426L1234 454L1236 456L1239 464L1238 465L1239 466L1240 469L1242 471L1246 484L1246 486L1235 500L1234 502L1236 506L1234 507L1235 509L1237 508L1238 510L1236 510L1240 518L1241 518L1244 523L1239 561L1236 561L1236 564L1240 564L1247 513L1249 508L1259 489L1258 488L1252 500L1246 496L1250 489L1251 480L1247 468L1244 464L1262 438L1273 426L1284 417L1288 414L1293 413L1300 412L1305 414L1308 417L1310 421L1314 420L1314 413L1321 405L1332 399L1348 394L1360 393L1365 395L1369 398L1366 404L1366 405L1367 405L1372 394L1384 394L1395 395L1400 398L1402 401L1406 402L1407 401L1421 400L1424 400L1429 403L1432 407L1435 408L1442 406L1445 405L1450 405L1451 405L1453 409L1455 410L1456 409L1454 409L1454 407L1455 405L1457 405L1458 406L1458 407L1459 408L1460 407L1459 405L1461 405L1464 407L1464 408L1462 409L1462 410L1463 410L1466 409L1470 410L1470 409L1468 409L1468 407L1470 405L1472 404L1474 405L1473 408L1475 408L1475 407L1477 408L1478 410L1477 410L1477 412L1483 413L1484 412L1480 412L1480 410L1482 408L1485 406L1487 407L1488 408L1487 410L1488 410L1488 407L1491 407L1493 408L1494 411L1494 413L1491 413L1491 414L1496 413L1500 416L1500 415L1499 415L1499 413L1502 413L1504 414L1504 415L1505 418L1504 418L1503 419L1511 421L1512 420L1511 420L1512 420L1518 420L1524 421L1526 422L1525 423L1526 424L1530 425L1531 424L1530 423L1528 423L1529 420L1533 418L1536 418L1539 419L1540 421L1541 424L1539 424L1538 425L1542 425L1544 425L1544 424L1543 424L1541 424L1543 420L1545 419L1551 419L1554 421L1555 423L1555 424L1552 425L1553 426L1560 425L1564 426L1568 429L1569 428L1568 426L1568 425L1571 424L1574 424L1577 425L1579 427L1579 430L1578 429L1577 430L1578 431L1582 432L1583 431L1581 430L1581 429L1584 427L1586 427L1590 428L1592 431L1592 433L1591 432L1590 433L1590 434L1591 435L1595 433L1598 430L1621 435L1628 438L1637 443L1638 450L1640 450L1639 445L1641 446L1641 445L1649 448L1649 449L1646 454L1640 454L1636 451L1635 451L1635 452L1638 454L1638 455L1647 456L1648 454L1650 454L1662 457L1672 461L1674 462L1674 463L1689 463L1692 464L1692 463L1693 462L1699 463L1703 465L1702 466L1702 467L1704 466L1705 465L1703 465L1705 462L1707 462L1710 462L1714 464L1713 463L1715 462L1728 458L1740 461L1742 467L1744 468L1744 468L1747 468L1746 470L1748 472L1751 471L1752 469L1757 466L1771 463L1775 465L1781 465L1784 467L1785 467L1785 465L1787 465L1801 463L1817 464L1833 460L1850 459L1867 454L1872 453L1891 454L1897 455L1902 460L1898 463L1905 458L1907 458L1910 460L1912 460L1914 461L1915 460L1919 463L1924 462L1928 463L1937 462L1940 460L1940 456L1942 454L1950 453L1981 449L2020 456L2054 460L2077 465L2128 474L2144 476L2170 476L2187 479L2195 479L2202 481L2210 480L2211 478L2217 477L2234 475L2250 471L2253 472L2259 470L2267 467L2271 467L2290 463L2309 461L2319 461L2332 459L2333 460L2364 458L2390 453L2407 454L2412 453L2436 452L2450 451L2461 450L2464 450L2475 449L2480 448L2488 449L2497 447L2508 447L2529 444L2538 444L2545 446L2554 446L2566 449L2572 449L2585 447L2598 447L2619 446L2649 437L2660 430L2663 426L2669 424L2675 423L2679 420L2697 415L2725 409L2743 408L2747 407L2755 408L2760 407L2776 407L2792 404L2800 403L2806 400L2835 393L2848 393L2854 392L2874 388L2882 387L2897 384L2914 384L2933 381L2944 381L2960 380L2973 377L2983 378L2997 376L3014 367L3033 361L3038 356L3044 353L3055 351L3057 350L3060 351L3063 350L3066 347L3065 345L3078 332L3087 320"/></g>
</svg>